<?xml version="1.0" encoding="UTF-8" standalone="no"?>
<!-- Created with Inkscape (http://www.inkscape.org/) -->

<svg
   xmlns:dc="http://purl.org/dc/elements/1.1/"
   xmlns:cc="http://creativecommons.org/ns#"
   xmlns:rdf="http://www.w3.org/1999/02/22-rdf-syntax-ns#"
   xmlns:svg="http://www.w3.org/2000/svg"
   xmlns="http://www.w3.org/2000/svg"
   xmlns:xlink="http://www.w3.org/1999/xlink"
   xmlns:sodipodi="http://sodipodi.sourceforge.net/DTD/sodipodi-0.dtd"
   xmlns:inkscape="http://www.inkscape.org/namespaces/inkscape"
   width="250.74016mm"
   height="163.25226mm"
   viewBox="0 0 250.74016 163.25226"
   version="1.1"
   id="svg8"
   inkscape:version="0.92.3 (2405546, 2018-03-11)"
   sodipodi:docname="SeA-SnaP_logo.svg">
  <defs
     id="defs2">
    <linearGradient
       inkscape:collect="always"
       id="linearGradient1254">
      <stop
         style="stop-color:#d5f6ff;stop-opacity:1;"
         offset="0"
         id="stop1250" />
      <stop
         style="stop-color:#d5f6ff;stop-opacity:0;"
         offset="1"
         id="stop1252" />
    </linearGradient>
    <inkscape:path-effect
       effect="bspline"
       id="path-effect1234"
       is_visible="true"
       weight="33.333333"
       steps="2"
       helper_size="0"
       apply_no_weight="true"
       apply_with_weight="true"
       only_selected="false" />
    <inkscape:path-effect
       effect="bspline"
       id="path-effect1230"
       is_visible="true"
       weight="33.333333"
       steps="2"
       helper_size="0"
       apply_no_weight="true"
       apply_with_weight="true"
       only_selected="false" />
    <inkscape:path-effect
       effect="bspline"
       id="path-effect1226"
       is_visible="true"
       weight="33.333333"
       steps="2"
       helper_size="0"
       apply_no_weight="true"
       apply_with_weight="true"
       only_selected="false" />
    <inkscape:path-effect
       effect="bspline"
       id="path-effect1222"
       is_visible="true"
       weight="33.333333"
       steps="2"
       helper_size="0"
       apply_no_weight="true"
       apply_with_weight="true"
       only_selected="false" />
    <inkscape:path-effect
       effect="bspline"
       id="path-effect1218"
       is_visible="true"
       weight="33.333333"
       steps="2"
       helper_size="0"
       apply_no_weight="true"
       apply_with_weight="true"
       only_selected="false" />
    <inkscape:path-effect
       effect="bspline"
       id="path-effect1210"
       is_visible="true"
       weight="33.333333"
       steps="2"
       helper_size="0"
       apply_no_weight="true"
       apply_with_weight="true"
       only_selected="false" />
    <inkscape:path-effect
       effect="bspline"
       id="path-effect1206"
       is_visible="true"
       weight="33.333333"
       steps="2"
       helper_size="0"
       apply_no_weight="true"
       apply_with_weight="true"
       only_selected="false" />
    <inkscape:path-effect
       effect="bspline"
       id="path-effect1202"
       is_visible="true"
       weight="33.333333"
       steps="2"
       helper_size="0"
       apply_no_weight="true"
       apply_with_weight="true"
       only_selected="false" />
    <inkscape:path-effect
       effect="bspline"
       id="path-effect1198"
       is_visible="true"
       weight="33.333333"
       steps="2"
       helper_size="0"
       apply_no_weight="true"
       apply_with_weight="true"
       only_selected="false" />
    <inkscape:path-effect
       effect="bspline"
       id="path-effect1194"
       is_visible="true"
       weight="33.333333"
       steps="2"
       helper_size="0"
       apply_no_weight="true"
       apply_with_weight="true"
       only_selected="false" />
    <inkscape:path-effect
       effect="bspline"
       id="path-effect1190"
       is_visible="true"
       weight="33.333333"
       steps="2"
       helper_size="0"
       apply_no_weight="true"
       apply_with_weight="true"
       only_selected="false" />
    <inkscape:path-effect
       effect="bspline"
       id="path-effect1186"
       is_visible="true"
       weight="33.333333"
       steps="2"
       helper_size="0"
       apply_no_weight="true"
       apply_with_weight="true"
       only_selected="false" />
    <inkscape:path-effect
       effect="bspline"
       id="path-effect1182"
       is_visible="true"
       weight="33.333333"
       steps="2"
       helper_size="0"
       apply_no_weight="true"
       apply_with_weight="true"
       only_selected="false" />
    <inkscape:path-effect
       effect="bspline"
       id="path-effect1178"
       is_visible="true"
       weight="33.333333"
       steps="2"
       helper_size="0"
       apply_no_weight="true"
       apply_with_weight="true"
       only_selected="false" />
    <inkscape:path-effect
       effect="bspline"
       id="path-effect1174"
       is_visible="true"
       weight="33.333333"
       steps="2"
       helper_size="0"
       apply_no_weight="true"
       apply_with_weight="true"
       only_selected="false" />
    <inkscape:path-effect
       effect="bspline"
       id="path-effect1170"
       is_visible="true"
       weight="33.333333"
       steps="2"
       helper_size="0"
       apply_no_weight="true"
       apply_with_weight="true"
       only_selected="false" />
    <inkscape:path-effect
       effect="bspline"
       id="path-effect1166"
       is_visible="true"
       weight="33.333333"
       steps="2"
       helper_size="0"
       apply_no_weight="true"
       apply_with_weight="true"
       only_selected="false" />
    <inkscape:path-effect
       effect="bspline"
       id="path-effect1162"
       is_visible="true"
       weight="33.333333"
       steps="2"
       helper_size="0"
       apply_no_weight="true"
       apply_with_weight="true"
       only_selected="false" />
    <inkscape:path-effect
       effect="bspline"
       id="path-effect1158"
       is_visible="true"
       weight="33.333333"
       steps="2"
       helper_size="0"
       apply_no_weight="true"
       apply_with_weight="true"
       only_selected="false" />
    <inkscape:path-effect
       effect="bspline"
       id="path-effect1154"
       is_visible="true"
       weight="33.333333"
       steps="2"
       helper_size="0"
       apply_no_weight="true"
       apply_with_weight="true"
       only_selected="false" />
    <inkscape:path-effect
       effect="bspline"
       id="path-effect1150"
       is_visible="true"
       weight="33.333333"
       steps="2"
       helper_size="0"
       apply_no_weight="true"
       apply_with_weight="true"
       only_selected="false" />
    <inkscape:path-effect
       effect="bspline"
       id="path-effect1146"
       is_visible="true"
       weight="33.333333"
       steps="2"
       helper_size="0"
       apply_no_weight="true"
       apply_with_weight="true"
       only_selected="false" />
    <inkscape:path-effect
       effect="bspline"
       id="path-effect1142"
       is_visible="true"
       weight="33.333333"
       steps="2"
       helper_size="0"
       apply_no_weight="true"
       apply_with_weight="true"
       only_selected="false" />
    <inkscape:path-effect
       effect="bspline"
       id="path-effect1138"
       is_visible="true"
       weight="33.333333"
       steps="2"
       helper_size="0"
       apply_no_weight="true"
       apply_with_weight="true"
       only_selected="false" />
    <inkscape:path-effect
       effect="spiro"
       id="path-effect872"
       is_visible="true" />
    <linearGradient
       inkscape:collect="always"
       xlink:href="#linearGradient1254"
       id="linearGradient1256"
       x1="285.84073"
       y1="450.99966"
       x2="302.38095"
       y2="195.58784"
       gradientUnits="userSpaceOnUse"
       gradientTransform="matrix(0.26458333,0,0,0.26458333,-17.29136,28.929678)" />
  </defs>
  <sodipodi:namedview
     id="base"
     pagecolor="#ffffff"
     bordercolor="#666666"
     borderopacity="1.0"
     inkscape:pageopacity="0.0"
     inkscape:pageshadow="2"
     inkscape:zoom="0.68"
     inkscape:cx="459.49645"
     inkscape:cy="240.31086"
     inkscape:document-units="mm"
     inkscape:current-layer="layer1"
     showgrid="false"
     showguides="true"
     inkscape:guide-bbox="true"
     inkscape:object-paths="true"
     inkscape:snap-smooth-nodes="false"
     inkscape:snap-intersection-paths="false"
     inkscape:snap-bbox="true"
     inkscape:object-nodes="false"
     inkscape:snap-bbox-midpoints="true"
     inkscape:window-width="1920"
     inkscape:window-height="1172"
     inkscape:window-x="1920"
     inkscape:window-y="0"
     inkscape:window-maximized="1"
     fit-margin-top="0"
     fit-margin-left="0"
     fit-margin-right="0"
     fit-margin-bottom="0" />
  <metadata
     id="metadata5">
    <rdf:RDF>
      <cc:Work
         rdf:about="">
        <dc:format>image/svg+xml</dc:format>
        <dc:type
           rdf:resource="http://purl.org/dc/dcmitype/StillImage" />
        <dc:title></dc:title>
      </cc:Work>
    </rdf:RDF>
  </metadata>
  <g
     inkscape:label="Layer 1"
     inkscape:groupmode="layer"
     id="layer1"
     transform="translate(17.29136,-28.929678)">
    <g
       id="g1553">
      <g
         style="stroke:#2a7fff;stroke-width:0.98848408;stroke-miterlimit:4;stroke-dasharray:none"
         transform="matrix(1.0005259,0,0,0.82854736,-0.05683013,17.400403)"
         id="g1032">
        <path
           inkscape:connector-curvature="0"
           style="fill:none;stroke:#2a7fff;stroke-width:3.73600292;stroke-linecap:butt;stroke-linejoin:miter;stroke-miterlimit:4;stroke-dasharray:none;stroke-opacity:1"
           d="m 246.40776,406.10103 c -34.16658,9.21336 -69.51389,13.39267 -104.5351,11.53294"
           id="path888"
           transform="scale(0.26458333)" />
        <path
           sodipodi:nodetypes="ccssssc"
           inkscape:connector-curvature="0"
           style="fill:none;stroke:#2a7fff;stroke-width:3.73600292;stroke-linecap:butt;stroke-linejoin:miter;stroke-miterlimit:4;stroke-dasharray:none;stroke-opacity:1"
           d="m 629.01385,378.04421 c -12.16252,0.63491 -24.2764,0.78892 -36.23337,-1.37814 -26.74757,-4.84775 -49.9262,-20.75527 -73.06303,-35.02479 -11.56842,-7.13476 -23.39282,-13.97388 -36.03761,-18.95815 -12.64475,-4.98426 -26.19904,-8.08166 -39.77741,-7.48046 -16.38981,0.72568 -32.14258,6.79329 -46.50278,14.72657 -13.32541,7.36162 -17.67322,11.51261 -30.34715,19.95343"
           id="path893"
           transform="scale(0.26458333)" />
        <path
           inkscape:connector-curvature="0"
           style="fill:none;stroke:#2a7fff;stroke-width:3.73600292;stroke-linecap:butt;stroke-linejoin:miter;stroke-miterlimit:4;stroke-dasharray:none;stroke-opacity:1"
           d="m 97.592715,411.92979 c -4.090049,-0.85002 -8.166509,-1.79105 -12.226865,-2.82476 v 0 c -12.881756,-3.27954 -25.533044,-7.44756 -38.4927,-10.40425 -12.959654,-2.95669 -26.370253,-4.69233 -39.5560772,-3.01036 -21.9041428,2.79402 -42.2734258,15.36023 -55.0457938,33.37316 -12.77237,18.01289 -17.896933,41.15475 -14.466395,62.96825 2.488263,15.82194 9.187506,30.6432 16.265556,45.01077 7.078046,14.36754 14.652394,28.6272 19.100292,44.01362 7.867037,27.21407 5.522338,56.34781 10.975609,84.14635 6.2225054,31.71976 22.8076621,61.21749 46.208014,83.51743 23.400351,22.29989 53.456847,37.38568 85.196985,43.50342 31.74013,6.11777 65.05861,3.33293 95.57908,-7.3143 30.52047,-10.64723 58.20682,-29.06868 80.33299,-52.6334 17.75406,-18.90833 32.13347,-41.17961 52.43903,-57.31706 19.47683,-15.47883 43.77636,-24.53424 68.5593,-26.71272 24.78297,-2.17844 49.98894,2.39161 72.90406,12.07858 42.26264,17.86579 75.71641,52.07822 117.07317,71.9512 54.84,26.35204 121.31411,24.89817 176.82928,0 22.98751,-10.30975 44.38602,-24.52059 61.65975,-42.85999 17.27376,-18.33944 30.32231,-40.90235 36.06183,-65.43345 5.73951,-24.5311 3.93615,-51.01531 -6.51481,-73.93897 -10.45096,-22.92367 -29.76631,-41.97226 -53.40189,-50.69439 -12.9922,-4.79444 -26.91564,-6.47104 -40.19909,-10.3869 -6.64173,-1.95794 -13.15711,-4.49529 -19.03918,-8.14873 -5.88205,-3.65341 -11.12818,-8.46705 -14.71295,-14.3912 -5.11756,-8.45726 -6.56765,-18.57449 -7.61756,-28.40364 -1.04992,-9.82915 -1.86399,-19.90934 -5.94338,-28.91342 -5.11601,-11.2921 -15.09362,-19.93486 -26.36667,-25.09267 -6.91484,-3.16379 -14.29876,-5.10852 -21.83445,-6.22322"
           id="path877"
           transform="scale(0.26458333)" />
      </g>
      <path
         d="M -13.295314,41.35737 H 0.628384 v 1.87414 H -5.214498 V 57.81666 H -7.452432 V 43.23151 h -5.842882 z"
         style="font-style:normal;font-weight:normal;font-size:medium;line-height:1.25;font-family:sans-serif;letter-spacing:0px;word-spacing:0px;fill:#ff0000;fill-opacity:1;stroke:none;stroke-width:0.26458332"
         id="path1077"
         inkscape:connector-curvature="0" />
      <path
         d="M 8.290276,43.55121 5.269617,51.74227 H 11.32196 Z M 7.033505,41.35737 h 2.524566 l 6.27283,16.45929 H 13.515797 L 12.016492,53.59435 H 4.597134 L 3.097828,57.81666 H 0.749651 Z"
         style="font-style:normal;font-weight:normal;font-size:medium;line-height:1.25;font-family:sans-serif;letter-spacing:0px;word-spacing:0px;fill:#008000;fill-opacity:1;stroke:none;stroke-width:0.26458332"
         id="path1079"
         inkscape:connector-curvature="0" />
      <path
         d="m 15.941144,41.35737 h 13.923698 v 1.87414 H 24.02196 V 57.81666 H 21.784026 V 43.23151 h -5.842882 z"
         style="font-style:normal;font-weight:normal;font-size:medium;line-height:1.25;font-family:sans-serif;letter-spacing:0px;word-spacing:0px;fill:#ff0000;fill-opacity:1;stroke:none;stroke-width:0.26458332"
         id="path1081"
         inkscape:connector-curvature="0" />
      <path
         d="M 43.248348,55.46849 V 51.04774 H 39.610327 V 49.2177 h 5.842882 v 7.06658 q -1.289844,0.91502 -2.844271,1.38907 -1.554427,0.46302 -3.318316,0.46302 -3.858507,0 -6.041319,-2.24896 -2.171789,-2.25998 -2.171789,-6.28386 0,-4.03489 2.171789,-6.28385 2.182812,-2.25998 6.041319,-2.25998 1.609549,0 3.053733,0.39687 1.455208,0.39688 2.678906,1.16858 v 2.37023 q -1.234722,-1.04731 -2.623785,-1.57648 -1.389062,-0.52917 -2.921441,-0.52917 -3.020659,0 -4.542014,1.68672 -1.51033,1.68672 -1.51033,5.02708 0,3.32935 1.51033,5.01606 1.521355,1.68672 4.542014,1.68672 1.179601,0 2.105643,-0.19843 0.926041,-0.20947 1.66467,-0.63941 z"
         style="font-style:normal;font-weight:normal;font-size:medium;line-height:1.25;font-family:sans-serif;letter-spacing:0px;word-spacing:0px;fill:#ffcc00;fill-opacity:1;stroke:none;stroke-width:0.26458332"
         id="path1083"
         inkscape:connector-curvature="0" />
      <path
         d="m 61.857378,42.62517 v 2.34818 q -1.124479,-1.04731 -2.403299,-1.56545 -1.267795,-0.51815 -2.700955,-0.51815 -2.822222,0 -4.321528,1.73082 -1.499305,1.71979 -1.499305,4.98298 0,3.25218 1.499305,4.98299 1.499306,1.71979 4.321528,1.71979 1.43316,0 2.700955,-0.51814 1.27882,-0.51814 2.403299,-1.56545 v 2.32613 q -1.168577,0.79375 -2.480469,1.19062 -1.300868,0.39688 -2.756076,0.39688 -3.73724,0 -5.88698,-2.28203 -2.149739,-2.29306 -2.149739,-6.25079 0,-3.96875 2.149739,-6.25078 2.14974,-2.29305 5.88698,-2.29305 1.477257,0 2.778125,0.39687 1.311892,0.38585 2.45842,1.16858 z"
         style="font-style:normal;font-weight:normal;font-size:medium;line-height:1.25;font-family:sans-serif;letter-spacing:0px;word-spacing:0px;fill:#0000ff;fill-opacity:1;stroke:none;stroke-width:0.26458332"
         id="path1085"
         inkscape:connector-curvature="0" />
      <path
         d="m 63.036977,41.35737 h 13.923696 v 1.87414 h -5.84288 v 14.58515 h -2.23793 V 43.23151 h -5.842886 z"
         style="font-style:normal;font-weight:normal;font-size:medium;line-height:1.25;font-family:sans-serif;letter-spacing:0px;word-spacing:0px;fill:#ff0000;fill-opacity:1;stroke:none;stroke-width:0.26458332"
         id="path1087"
         inkscape:connector-curvature="0" />
      <path
         d="m 84.622563,43.55121 -3.02066,8.19106 h 6.05235 z m -1.25677,-2.19384 h 2.52457 l 6.27283,16.45929 h -2.31511 l -1.4993,-4.22231 h -7.41936 l -1.4993,4.22231 h -2.34818 z"
         style="font-style:normal;font-weight:normal;font-size:medium;line-height:1.25;font-family:sans-serif;letter-spacing:0px;word-spacing:0px;fill:#008000;fill-opacity:1;stroke:none;stroke-width:0.26458332"
         id="path1089"
         inkscape:connector-curvature="0" />
      <path
         d="m 92.273433,41.35737 h 13.923697 v 1.87414 h -5.84288 V 57.81666 H 98.116313 V 43.23151 h -5.84288 z"
         style="font-style:normal;font-weight:normal;font-size:medium;line-height:1.25;font-family:sans-serif;letter-spacing:0px;word-spacing:0px;fill:#ff0000;fill-opacity:1;stroke:none;stroke-width:0.26458332"
         id="path1091"
         inkscape:connector-curvature="0" />
      <path
         sodipodi:nodetypes="ccsccccsccc"
         inkscape:connector-curvature="0"
         id="path1128"
         d="m 112.36754,43.685841 c -0.41537,0.241797 -0.78178,0.538673 -1.09923,0.89063 -1.00689,1.124479 -1.51033,2.800172 -1.51033,5.027078 0,2.219568 0.50344,3.891586 1.51033,5.01606 0.69936,0.775386 1.63636,1.283436 2.81098,1.524156 l -2.16898,1.322713 c -0.89149,-0.371686 -1.66773,-0.89804 -2.32872,-1.579067 -1.44786,-1.506654 -2.17179,-3.601276 -2.17179,-6.283862 0,-2.689927 0.72393,-4.784543 2.17179,-6.283849 0.24027,-0.248764 0.49577,-0.476994 0.76649,-0.684684 z"
         style="font-style:normal;font-weight:normal;font-size:medium;line-height:1.25;font-family:sans-serif;letter-spacing:0px;word-spacing:0px;fill:#ffcc00;fill-opacity:1;stroke:none;stroke-width:0.26458332" />
      <path
         sodipodi:nodetypes="ccccccc"
         inkscape:connector-curvature="0"
         d="M 119.58064,52.785552 V 51.04774 h -3.63803 v -1.830041 h 5.84289 l -1e-5,2.225132 z"
         style="font-style:normal;font-weight:normal;font-size:medium;line-height:1.25;font-family:sans-serif;letter-spacing:0px;word-spacing:0px;fill:#ffcc00;fill-opacity:1;stroke:none;stroke-width:0.26458332"
         id="path1093" />
      <path
         sodipodi:nodetypes="ccccccccsccccscscssccc"
         inkscape:connector-curvature="0"
         id="path857"
         d="m 167.57009,142.96914 c 2.24535,0.58266 4.30626,0.58716 6.56112,0.0118 2.25487,-0.57534 3.64531,-1.64269 3.64531,-2.79827 2.0351,-8.85835 1.84738,-17.49213 2.0516,-25.30767 0.22333,-8.54652 1.416,-18.388209 -1.17579,-28.646486 -2.53981,-10.052637 -1.97998,-25.396668 -10.96002,-33.819401 -4.31133,-4.043775 -9.54173,-5.789353 -14.0996,-7.328125 -4.55788,-1.538769 -8.9796,-4.004738 -8.9796,-4.004738 -0.77386,-1.835732 -8.21783,-10.680427 -19.34606,-11.303688 -10.71687,-0.600222 -18.79849,1.189576 -22.44062,7.141916 l -0.52916,1.5875 22.05689,11.37719 -16.70045,10.167273 c 8.89955,3.538167 20.62868,3.354339 29.19671,-0.457592 1.98315,-0.882306 3.73341,-1.933064 5.21116,-3.318787 0,0 3.28155,0.555045 7.12878,1.853895 3.84723,1.298853 8.29623,3.587305 9.08399,4.326173 5.54442,5.200332 4.6942,17.895284 7.03228,27.149477 1.78452,7.063097 1.00312,15.602983 0.75977,24.916013 -0.22792,8.72294 -0.18297,16.89218 -2.03321,23.91797 -0.15441,0.58636 -0.31268,1.17203 -0.26854,1.74113 0.18729,1.13991 1.56011,2.21175 3.80544,2.79442 z"
         style="color:#000000;font-style:normal;font-variant:normal;font-weight:normal;font-stretch:normal;font-size:medium;line-height:normal;font-family:sans-serif;font-variant-ligatures:normal;font-variant-position:normal;font-variant-caps:normal;font-variant-numeric:normal;font-variant-alternates:normal;font-feature-settings:normal;text-indent:0;text-align:start;text-decoration:none;text-decoration-line:none;text-decoration-style:solid;text-decoration-color:#000000;letter-spacing:normal;word-spacing:normal;text-transform:none;writing-mode:lr-tb;direction:ltr;text-orientation:mixed;dominant-baseline:auto;baseline-shift:baseline;text-anchor:start;white-space:normal;shape-padding:0;clip-rule:nonzero;display:inline;overflow:visible;visibility:visible;opacity:1;isolation:auto;mix-blend-mode:normal;color-interpolation:sRGB;color-interpolation-filters:linearRGB;solid-color:#000000;solid-opacity:1;vector-effect:none;fill:none;fill-opacity:1;fill-rule:nonzero;stroke:#447821;stroke-width:1.46499991;stroke-linecap:butt;stroke-linejoin:round;stroke-miterlimit:4;stroke-dasharray:none;stroke-dashoffset:0;stroke-opacity:1;color-rendering:auto;image-rendering:auto;shape-rendering:auto;text-rendering:auto;enable-background:accumulate" />
      <path
         sodipodi:nodetypes="csscaac"
         inkscape:connector-curvature="0"
         id="path868"
         d="m 35.708134,140.18796 c -0.856488,-6.5894 -1.04489,-13.23737 -0.460086,-19.70944 0.279275,-3.09079 1.996008,-9.42403 3.685545,-14.4961 1.689536,-5.07206 3.277343,-9.074219 3.277343,-9.074219 0,0 -10.223815,3.932829 -13.692057,7.899609 -3.422317,3.91425 -4.823011,9.34845 -5.921484,14.43047 -1.476342,6.83021 -1.5524,14.00997 -0.761969,20.94997"
         style="color:#000000;font-style:normal;font-variant:normal;font-weight:normal;font-stretch:normal;font-size:medium;line-height:normal;font-family:sans-serif;font-variant-ligatures:normal;font-variant-position:normal;font-variant-caps:normal;font-variant-numeric:normal;font-variant-alternates:normal;font-feature-settings:normal;text-indent:0;text-align:start;text-decoration:none;text-decoration-line:none;text-decoration-style:solid;text-decoration-color:#000000;letter-spacing:normal;word-spacing:normal;text-transform:none;writing-mode:lr-tb;direction:ltr;text-orientation:mixed;dominant-baseline:auto;baseline-shift:baseline;text-anchor:start;white-space:normal;shape-padding:0;clip-rule:nonzero;display:inline;overflow:visible;visibility:visible;opacity:1;isolation:auto;mix-blend-mode:normal;color-interpolation:sRGB;color-interpolation-filters:linearRGB;solid-color:#000000;solid-opacity:1;vector-effect:none;fill:none;fill-opacity:1;fill-rule:nonzero;stroke:#447821;stroke-width:1.46499991;stroke-linecap:butt;stroke-linejoin:round;stroke-miterlimit:4;stroke-dasharray:none;stroke-dashoffset:0;stroke-opacity:1;color-rendering:auto;image-rendering:auto;shape-rendering:auto;text-rendering:auto;enable-background:accumulate" />
      <path
         sodipodi:nodetypes="cccc"
         inkscape:connector-curvature="0"
         id="path900"
         d="m 35.707875,140.18597 c -1e-6,1.15558 -1.39044,2.22293 -3.645316,2.79827 -2.254859,0.57536 -4.31577,0.57086 -6.56112,-0.0118 -2.245333,-0.58267 -3.618145,-1.65451 -3.599103,-2.81006"
         style="fill:none;fill-opacity:1;stroke:#447821;stroke-width:1.46500003;stroke-linecap:round;stroke-linejoin:round;stroke-miterlimit:4;stroke-dasharray:none;stroke-dashoffset:0;stroke-opacity:1;paint-order:normal" />
      <path
         sodipodi:open="true"
         d="m 37.53188,134.60123 a 15.196455,6.7539787 0 0 1 6.131222,7.33496 15.196455,6.7539787 0 0 1 -13.569063,4.98578 15.196455,6.7539787 0 0 1 -15.056625,-4.05544 15.196455,6.7539787 0 0 1 3.665179,-7.65335"
         sodipodi:end="3.9691424"
         sodipodi:start="5.3096455"
         sodipodi:ry="6.7539787"
         sodipodi:rx="15.196455"
         sodipodi:cy="140.18597"
         sodipodi:cx="28.985758"
         sodipodi:type="arc"
         id="path900-3"
         style="fill:none;fill-opacity:1;stroke:#80b3ff;stroke-width:1.16499996;stroke-linecap:round;stroke-linejoin:round;stroke-miterlimit:4;stroke-dasharray:none;stroke-dashoffset:0;stroke-opacity:1;paint-order:normal" />
      <path
         sodipodi:open="true"
         d="M 38.986895,130.23777 A 24.487833,10.88348 0 0 1 53.139075,142.15518 24.487833,10.88348 0 0 1 30.37041,151.05375 24.487833,10.88348 0 0 1 5.5858217,143.29176 24.487833,10.88348 0 0 1 16.78069,130.76852"
         sodipodi:end="4.187337"
         sodipodi:start="5.1299892"
         sodipodi:ry="10.88348"
         sodipodi:rx="24.487833"
         sodipodi:cy="140.18597"
         sodipodi:cx="29.055412"
         sodipodi:type="arc"
         id="path900-3-6"
         style="fill:none;fill-opacity:1;stroke:#80b3ff;stroke-width:0.76499999;stroke-linecap:round;stroke-linejoin:round;stroke-miterlimit:4;stroke-dasharray:none;stroke-dashoffset:0;stroke-opacity:1;paint-order:normal" />
      <path
         sodipodi:nodetypes="cccssscsccccscccsscc"
         inkscape:connector-curvature="0"
         id="path900-5"
         d="m 78.897724,142.91257 c -2.254859,0.57536 -4.31577,0.57086 -6.56112,-0.0118 -2.245333,-0.58267 -3.618145,-1.65451 -3.764581,-2.7508 -1.750683,-5.11697 -6.17344,-12.18938 -5.415773,-21.80036 0.554672,-7.03602 2.030867,-16.7524 10.50781,-22.314455 8.84138,-5.801183 18.906257,-3.249139 26.058593,-0.740235 7.306067,2.562831 14.129827,7.5146 18.222657,14.70703 3.6584,6.42903 2.94166,12.91079 2.83593,17.4375 -0.10803,4.62534 -0.90049,8.86203 -1.86543,12.75345 0.002,1.14865 -1.38872,2.216 -3.6436,2.79134 -2.25486,0.57536 -4.31577,0.57086 -6.56112,-0.0118 -2.24533,-0.58267 -3.61815,-1.65451 -4.06518,-2.81766 0.91841,-4.86896 2.28342,-9.17403 2.37362,-13.03564 0.11235,-4.81001 -0.0765,-8.62249 -1.03711,-10.31055 -2.03809,-3.58158 -6.424983,-6.98496 -10.816405,-8.52539 -5.432573,-1.90564 -11.641852,-2.25547 -13.951172,-0.74023 -1.913962,1.25582 -3.913902,6.53515 -4.335939,11.88867 -0.325324,4.12674 3.485047,10.2796 5.363284,19.35938 0.08943,0.43234 0.190537,0.87346 0.300852,1.32328 -1e-6,1.15558 -1.39044,2.22293 -3.645316,2.79827 z"
         style="fill:none;fill-opacity:1;stroke:#447821;stroke-width:1.46500003;stroke-linecap:round;stroke-linejoin:round;stroke-miterlimit:4;stroke-dasharray:none;stroke-dashoffset:0;stroke-opacity:1;paint-order:normal" />
      <path
         sodipodi:open="true"
         d="m 84.367045,134.52956 a 15.196455,6.7539787 0 0 1 6.272539,7.08137 15.196455,6.7539787 0 0 1 -12.542293,5.18115 15.196455,6.7539787 0 0 1 -15.432533,-3.29744 15.196455,6.7539787 0 0 1 1.271475,-7.58935"
         sodipodi:end="3.8144086"
         sodipodi:start="5.3096455"
         sodipodi:ry="6.7539787"
         sodipodi:rx="15.196455"
         sodipodi:cy="140.1143"
         sodipodi:cx="75.820923"
         sodipodi:type="arc"
         id="path900-3-3"
         style="fill:none;fill-opacity:1;stroke:#80b3ff;stroke-width:1.26499999;stroke-linecap:round;stroke-linejoin:round;stroke-miterlimit:4;stroke-dasharray:none;stroke-dashoffset:0;stroke-opacity:1;paint-order:normal" />
      <path
         sodipodi:open="true"
         d="m 82.128562,129.58987 a 24.487833,10.88348 0 0 1 18.240828,10.81982 24.487833,10.88348 0 0 1 -19.534936,10.36398 24.487833,10.88348 0 0 1 -27.164338,-6.08558 24.487833,10.88348 0 0 1 7.126338,-13.14386"
         sodipodi:end="4.0482354"
         sodipodi:start="4.9699658"
         sodipodi:ry="10.88348"
         sodipodi:rx="24.487833"
         sodipodi:cy="140.1143"
         sodipodi:cx="75.890579"
         sodipodi:type="arc"
         id="path900-3-6-5"
         style="fill:none;fill-opacity:1;stroke:#80b3ff;stroke-width:0.86500001;stroke-linecap:round;stroke-linejoin:round;stroke-miterlimit:4;stroke-dasharray:none;stroke-dashoffset:0;stroke-opacity:1;paint-order:normal" />
      <path
         sodipodi:open="true"
         d="m 122.62221,135.27262 a 15.196455,6.7539787 0 0 1 3.67822,7.42675 15.196455,6.7539787 0 0 1 -14.20314,4.24044 15.196455,6.7539787 0 0 1 -14.078752,-4.3216 15.196455,6.7539787 0 0 1 3.893712,-7.40503"
         sodipodi:end="3.9691424"
         sodipodi:start="5.4685495"
         sodipodi:ry="6.7539787"
         sodipodi:rx="15.196455"
         sodipodi:cy="140.18597"
         sodipodi:cx="112.19541"
         sodipodi:type="arc"
         id="path900-3-9"
         style="fill:none;fill-opacity:1;stroke:#80b3ff;stroke-width:1.26499999;stroke-linecap:round;stroke-linejoin:round;stroke-miterlimit:4;stroke-dasharray:none;stroke-dashoffset:0;stroke-opacity:1;paint-order:normal" />
      <path
         sodipodi:open="true"
         d="m 124.04687,130.64497 a 24.487833,10.88348 0 0 1 11.91249,12.28917 24.487833,10.88348 0 0 1 -23.9049,8.13491 24.487833,10.88348 0 0 1 -23.586547,-8.31644 24.487833,10.88348 0 0 1 12.386307,-12.19629"
         sodipodi:end="4.2276471"
         sodipodi:start="5.2143311"
         sodipodi:ry="10.88348"
         sodipodi:rx="24.487833"
         sodipodi:cy="140.18597"
         sodipodi:cx="112.26506"
         sodipodi:type="arc"
         id="path900-3-6-1"
         style="fill:none;fill-opacity:1;stroke:#80b3ff;stroke-width:0.76499999;stroke-linecap:round;stroke-linejoin:round;stroke-miterlimit:4;stroke-dasharray:none;stroke-dashoffset:0;stroke-opacity:1;paint-order:normal" />
      <path
         sodipodi:open="true"
         d="m 180.90513,135.03987 a 15.196455,6.7539787 0 0 1 4.4599,7.41507 15.196455,6.7539787 0 0 1 -14.02193,4.4805 15.196455,6.7539787 0 0 1 -14.39476,-4.24054 15.196455,6.7539787 0 0 1 3.82291,-7.48501"
         sodipodi:end="3.9691424"
         sodipodi:start="5.4176397"
         sodipodi:ry="6.7539787"
         sodipodi:rx="15.196455"
         sodipodi:cy="140.18268"
         sodipodi:cx="171.05441"
         sodipodi:type="arc"
         id="path900-3-0"
         style="fill:none;fill-opacity:1;stroke:#80b3ff;stroke-width:1.46500003;stroke-linecap:round;stroke-linejoin:round;stroke-miterlimit:4;stroke-dasharray:none;stroke-dashoffset:0;stroke-opacity:1;paint-order:normal" />
      <path
         sodipodi:open="true"
         d="m 182.14407,130.46353 a 24.487833,10.88348 0 0 1 12.8056,12.2331 24.487833,10.88348 0 0 1 -23.81087,8.36953 24.487833,10.88348 0 0 1 -23.83351,-8.35679 24.487833,10.88348 0 0 1 12.77247,-12.23994"
         sodipodi:end="4.2443983"
         sodipodi:start="5.1791762"
         sodipodi:ry="10.88348"
         sodipodi:rx="24.487833"
         sodipodi:cy="140.18268"
         sodipodi:cx="171.12407"
         sodipodi:type="arc"
         id="path900-3-6-9"
         style="fill:none;fill-opacity:1;stroke:#80b3ff;stroke-width:1.26499999;stroke-linecap:round;stroke-linejoin:round;stroke-miterlimit:4;stroke-dasharray:none;stroke-dashoffset:0;stroke-opacity:1;paint-order:normal" />
      <path
         sodipodi:open="true"
         d="m 185.85261,127.32755 a 33.610573,14.938029 0 0 1 18.27704,16.02842 33.610573,14.938029 0 0 1 -29.60471,12.23814 33.610573,14.938029 0 0 1 -34.64775,-9.26103 33.610573,14.938029 0 0 1 10.44532,-17.35926"
         sodipodi:end="4.0482354"
         sodipodi:start="5.1687873"
         sodipodi:ry="14.938029"
         sodipodi:rx="33.610573"
         sodipodi:cy="140.7366"
         sodipodi:cx="171.03983"
         sodipodi:type="arc"
         id="path900-3-6-5-3"
         style="fill:none;fill-opacity:1;stroke:#80b3ff;stroke-width:0.86500001;stroke-linecap:round;stroke-linejoin:round;stroke-miterlimit:4;stroke-dasharray:none;stroke-dashoffset:0;stroke-opacity:1;paint-order:normal" />
      <ellipse
         transform="rotate(18.174682)"
         ry="1.7197917"
         rx="3.0427084"
         cy="-5.206233"
         cx="132.93423"
         id="path1025"
         style="fill:none;fill-opacity:1;stroke:#483737;stroke-width:1.46499991;stroke-linecap:round;stroke-linejoin:round;stroke-miterlimit:4;stroke-dasharray:none;stroke-dashoffset:0;stroke-opacity:1;paint-order:normal" />
      <path
         inkscape:original-d="m 30.098579,103.47359 c 0.829426,1.57515 1.658588,3.15056 2.487485,4.72623 -0.663106,2.65322 -1.492226,5.30637 -2.238737,7.95995 -2.487515,0.99485 -4.974706,1.98973 -7.462457,2.98498"
         inkscape:path-effect="#path-effect1138"
         inkscape:connector-curvature="0"
         id="path1136"
         d="m 30.098579,103.47359 c 0.829112,1.57532 1.658274,3.15073 1.702816,5.25426 0.04454,2.10353 -0.707734,4.77829 -2.324632,6.6026 -1.616898,1.8243 -4.10409,2.81918 -6.591893,3.8143"
         style="fill:none;stroke:#6c5353;stroke-width:0.26458332px;stroke-linecap:butt;stroke-linejoin:miter;stroke-opacity:1" />
      <path
         inkscape:original-d="m 22.476662,119.81283 c 1.545909,1.02079 3.091554,2.04184 4.636935,3.06315 0.49774,1.658 0.995257,3.31639 1.492491,4.97498 -2.399206,2.32878 -4.798184,4.65736 -7.197673,6.98644"
         inkscape:path-effect="#path-effect1150"
         inkscape:connector-curvature="0"
         id="path1148"
         d="m 22.476662,119.81283 c 1.545709,1.02109 3.091354,2.04214 4.112858,3.38169 1.021504,1.33955 1.51902,2.99794 0.568195,4.99159 -0.950825,1.99364 -3.349806,4.32222 -5.7493,6.65129"
         style="fill:none;stroke:#6c5353;stroke-width:0.26458332px;stroke-linecap:butt;stroke-linejoin:miter;stroke-opacity:1" />
      <path
         inkscape:original-d="m 21.666957,134.58639 c 2.396225,1.81749 4.792183,3.73279 7.187879,5.59958 -1.378995,0.85013 -2.758297,1.70055 -4.137842,2.55123"
         inkscape:path-effect="#path-effect1154"
         inkscape:connector-curvature="0"
         id="path1152"
         d="m 21.666957,134.58639 c 2.372351,1.84814 4.791956,3.73308 5.300443,5.09143 0.508487,1.35836 -0.870813,2.20878 -2.250406,3.05938"
         style="fill:none;stroke:#6c5353;stroke-width:0.26458332px;stroke-linecap:butt;stroke-linejoin:miter;stroke-opacity:1" />
      <path
         inkscape:original-d="m 69.644783,141.70117 c 1.494364,-2.21243 2.988461,-4.59043 4.482296,-6.88525 -3.085219,-1.34698 -6.171531,-2.69405 -9.257692,-4.04067"
         inkscape:path-effect="#path-effect1158"
         inkscape:connector-curvature="0"
         id="path1156"
         d="m 69.644783,141.70117 c 1.456386,-2.23715 2.988396,-4.59047 2.192666,-6.41119 -0.795731,-1.82072 -3.882042,-3.16779 -6.968062,-4.51473"
         style="fill:none;stroke:#6c5353;stroke-width:0.26458332px;stroke-linecap:butt;stroke-linejoin:miter;stroke-opacity:1" />
      <path
         inkscape:original-d="m 64.282925,128.88644 c 2.037906,-1.92084 4.075549,-3.84141 6.112925,-5.76171 -2.287016,-2.81453 -4.57491,-5.62954 -6.862762,-8.44392"
         inkscape:path-effect="#path-effect1162"
         inkscape:connector-curvature="0"
         id="path1160"
         d="m 64.282925,128.88644 c 2.037916,-1.92083 4.075559,-3.8414 3.950589,-6.2087 -0.12497,-2.3673 -2.412861,-5.18232 -4.700426,-7.99693"
         style="fill:none;stroke:#6c5353;stroke-width:0.26458332px;stroke-linecap:butt;stroke-linejoin:miter;stroke-opacity:1" />
      <path
         inkscape:original-d="m 63.854967,112.5922 c 3.507219,-1.38148 7.014173,-2.76269 10.520862,-4.14363 -0.732827,-3.78002 -1.466048,-7.56047 -2.19947,-11.340302"
         inkscape:path-effect="#path-effect1166"
         inkscape:connector-curvature="0"
         id="path1164"
         d="m 63.854967,112.5922 c 3.507275,-1.38134 7.014229,-2.76255 8.400981,-5.34307 1.386751,-2.58052 0.653527,-6.36097 -0.07959,-10.140862"
         style="fill:none;stroke:#6c5353;stroke-width:0.26458332px;stroke-linecap:butt;stroke-linejoin:miter;stroke-opacity:1" />
      <path
         inkscape:original-d="m 75.056814,95.194452 c 2.887612,3.846491 5.774962,7.693248 8.662045,11.540278 2.877786,-4.51233 5.755241,-9.024291 8.632463,-13.536038"
         inkscape:path-effect="#path-effect1170"
         inkscape:connector-curvature="0"
         id="path1168"
         d="m 75.056814,95.194452 c 2.887315,3.846714 5.774662,7.693468 8.657213,7.360688 2.88255,-0.33278 5.760005,-4.844745 8.637295,-9.356448"
         style="fill:none;stroke:#6c5353;stroke-width:0.26458332px;stroke-linecap:butt;stroke-linejoin:miter;stroke-opacity:1" />
      <path
         inkscape:original-d="m 96.291354,94.182492 c 0.274672,4.967992 0.549076,9.936248 0.823216,14.904768 4.26057,-2.76287 8.52044,-5.5252 12.78026,-8.28741"
         inkscape:path-effect="#path-effect1174"
         inkscape:connector-curvature="0"
         id="path1172"
         d="m 96.291354,94.182492 c 0.274392,4.968007 0.548797,9.936268 2.816311,11.039108 2.267515,1.10285 6.527385,-1.65948 10.787165,-4.42175"
         style="fill:none;stroke:#6c5353;stroke-width:0.26458332px;stroke-linecap:butt;stroke-linejoin:miter;stroke-opacity:1" />
      <path
         inkscape:original-d="m 113.18461,103.72271 c -2.60621,4.03562 -5.21269,8.0715 -7.81944,12.10765 4.9982,0.22634 9.99536,0.45292 14.99265,0.67979"
         inkscape:path-effect="#path-effect1178"
         inkscape:connector-curvature="0"
         id="path1176"
         d="m 113.18461,103.72271 c -2.60628,4.03557 -5.21276,8.07146 -4.01701,10.20287 1.19576,2.13141 6.19292,2.35798 11.19022,2.58457"
         style="fill:none;stroke:#6c5353;stroke-width:0.26458332px;stroke-linecap:butt;stroke-linejoin:miter;stroke-opacity:1" />
      <path
         inkscape:original-d="m 120.84309,120.36199 c -4.59813,1.5826 -9.19653,3.16547 -13.79518,4.7486 4.49338,2.08749 8.98588,4.17496 13.47842,6.26284"
         inkscape:path-effect="#path-effect1182"
         inkscape:connector-curvature="0"
         id="path1180"
         d="m 120.84309,120.36199 c -4.59808,1.58276 -9.19648,3.16563 -9.24921,5.00102 -0.0527,1.83539 4.43976,3.92286 8.93245,6.01042"
         style="fill:none;stroke:#6c5353;stroke-width:0.26458332px;stroke-linecap:butt;stroke-linejoin:miter;stroke-opacity:1" />
      <path
         inkscape:original-d="m 120.1279,134.35566 c -4.86081,0.52453 -9.72188,1.04934 -14.58322,1.5744 3.9866,2.05652 7.97245,4.11305 11.95827,6.16996"
         inkscape:path-effect="#path-effect1186"
         inkscape:connector-curvature="0"
         id="path1184"
         d="m 120.1279,134.35566 c -4.86078,0.52477 -9.72186,1.04957 -10.15932,2.3404 -0.43746,1.29083 3.54839,3.34736 7.53437,5.40396"
         style="fill:none;stroke:#6c5353;stroke-width:0.26458332px;stroke-linecap:butt;stroke-linejoin:miter;stroke-opacity:1" />
      <path
         inkscape:original-d="m 177.59462,140.90077 c -4.11707,-3.02063 -8.2344,-6.04099 -12.35201,-9.06109 4.75891,-1.75412 9.51744,-3.50794 14.27576,-5.26151"
         inkscape:path-effect="#path-effect1190"
         inkscape:connector-curvature="0"
         id="path1188"
         d="m 177.59462,140.90077 c -4.11729,-3.02033 -8.23462,-6.04069 -7.91383,-8.42788 0.32078,-2.38719 5.07931,-4.141 9.83758,-5.89472"
         style="fill:none;stroke:#784421;stroke-width:0.26458332px;stroke-linecap:butt;stroke-linejoin:miter;stroke-opacity:1" />
      <path
         inkscape:original-d="m 179.62172,124.10368 c -4.54111,-2.2349 -9.08248,-4.46955 -13.62411,-6.70392 4.66416,-2.23178 9.32784,-4.46319 13.99137,-6.69439"
         inkscape:path-effect="#path-effect1194"
         inkscape:connector-curvature="0"
         id="path1192"
         d="m 179.62172,124.10368 c -4.54126,-2.23459 -9.08264,-4.46923 -9.02127,-6.70241 0.0614,-2.23318 4.72505,-4.46459 9.38853,-6.6959"
         style="fill:none;stroke:#784421;stroke-width:0.26458332px;stroke-linecap:butt;stroke-linejoin:miter;stroke-opacity:1" />
      <path
         inkscape:original-d="m 180.1579,106.96896 c -4.4156,-1.57997 -9.14392,-3.16269 -13.71628,-4.74364 4.41285,-3.579913 8.82512,-7.159318 13.23729,-10.738577"
         inkscape:path-effect="#path-effect1198"
         inkscape:connector-curvature="0"
         id="path1196"
         d="m 180.1579,106.96896 c -4.43193,-1.53274 -9.14403,-3.16237 -9.22372,-5.74295 -0.0797,-2.580575 4.33259,-6.159974 8.74473,-9.739267"
         style="fill:none;stroke:#784421;stroke-width:0.26458332px;stroke-linecap:butt;stroke-linejoin:miter;stroke-opacity:1" />
      <path
         inkscape:original-d="m 178.53659,85.758024 c -4.79532,-0.821624 -9.59399,-1.665375 -14.39138,-2.497666 3.57544,-4.622242 7.70029,-9.356029 11.55004,-14.033648"
         inkscape:path-effect="#path-effect1202"
         inkscape:connector-curvature="0"
         id="path1200"
         d="m 178.53659,85.758024 c -4.79353,-0.831931 -9.59404,-1.665074 -10.1368,-4.336364 -0.54275,-2.67129 3.44568,-7.517354 7.29546,-12.19495"
         style="fill:none;stroke:#784421;stroke-width:0.26458332px;stroke-linecap:butt;stroke-linejoin:miter;stroke-opacity:1" />
      <path
         inkscape:original-d="m 174.42818,64.132282 c -4.73839,0.279524 -9.47705,0.559313 -14.21597,0.839364 1.98511,-4.624922 3.96971,-9.249037 5.95417,-13.87316"
         inkscape:path-effect="#path-effect1206"
         inkscape:connector-curvature="0"
         id="path1204"
         d="m 174.42818,64.132282 c -4.73838,0.279771 -9.47704,0.55956 -10.85401,-1.613028 -1.37698,-2.172587 0.60762,-6.796699 2.59221,-11.420768"
         style="fill:none;stroke:#784421;stroke-width:0.26458332px;stroke-linecap:butt;stroke-linejoin:miter;stroke-opacity:1" />
      <path
         inkscape:original-d="m 161.57802,48.215322 c -4.29671,3.247011 -8.5937,6.494288 -12.89094,9.741828 -0.39883,-5.137023 -0.86232,-10.304139 -1.29388,-15.455812"
         inkscape:path-effect="#path-effect1210"
         inkscape:connector-curvature="0"
         id="path1208"
         d="m 161.57802,48.215322 c -4.29668,3.24705 -8.59367,6.494331 -10.95722,5.550865 -2.36355,-0.943465 -2.79633,-6.113152 -3.2276,-11.264849"
         style="fill:none;stroke:#784421;stroke-width:0.26458332px;stroke-linecap:butt;stroke-linejoin:miter;stroke-opacity:1" />
      <path
         sodipodi:nodetypes="cccccc"
         inkscape:original-d="m 143.64498,39.594625 c -3.7314,-0.787692 -7.46234,-1.574965 -11.19419,-2.36211 -0.007,-1.956794 -0.0137,-3.913128 -0.0209,-5.869294 -3.86063,-0.565661 -7.72276,-1.131237 -11.58454,-1.696458 -0.54101,1.386666 -1.1295,2.894572 -1.69479,4.342636 -3.0738,-0.879682 -6.14679,-1.75879 -9.22058,-2.637788"
         inkscape:path-effect="#path-effect1222"
         inkscape:connector-curvature="0"
         id="path1220"
         d="m 143.64498,39.594625 c -3.73146,-0.787384 -7.4624,-1.574658 -9.33178,-2.946781 -1.86938,-1.372123 -1.87634,-3.328456 -3.81016,-4.589221 -1.93382,-1.260765 -5.79595,-1.826341 -7.9974,-1.415795 -2.20144,0.410547 -2.78993,1.918454 -4.60945,2.202829 -1.81952,0.284375 -4.89251,-0.594734 -7.96621,-1.474046"
         style="fill:none;stroke:#784421;stroke-width:0.26458332px;stroke-linecap:butt;stroke-linejoin:miter;stroke-opacity:1" />
      <path
         sodipodi:nodetypes="ccccc"
         inkscape:original-d="m 113.99928,61.866107 c 1.62234,-2.176521 3.2446,-4.353015 4.86623,-6.528769 3.08977,2.628505 6.17995,5.257847 9.26953,7.887169 2.06333,-2.565616 4.12662,-5.131244 6.1892,-7.696052 1.22168,1.173334 2.44336,2.347187 3.66464,3.521176"
         inkscape:path-effect="#path-effect1234"
         inkscape:connector-curvature="0"
         id="path1232"
         d="m 113.99928,61.866107 c 1.6223,-2.176553 3.24455,-4.35305 5.60016,-4.126515 2.3556,0.226535 5.44578,2.855877 8.02234,2.887576 2.57656,0.0317 4.63985,-2.53393 6.28186,-3.229519 1.64202,-0.69559 2.8637,0.478263 4.08524,1.651982"
         style="fill:none;stroke:#784421;stroke-width:0.26458332px;stroke-linecap:butt;stroke-linejoin:miter;stroke-opacity:1" />
      <path
         inkscape:connector-curvature="0"
         id="path1248"
         d="m 29.236026,190.09889 c -9.399915,-1.69851 -18.84902,-6.63943 -24.6987221,-12.91494 -5.9486862,-6.38169 -8.0677889,-11.42059 -9.109427,-21.66082 -0.8374213,-8.2326 -1.9876098,-12.16654 -5.1114647,-17.48254 -4.6696602,-7.94657 -6.2285652,-11.85556 -6.2224472,-15.60293 0.01065,-6.52253 4.464182,-12.84278 11.2555246,-15.97334 4.20105596,-1.93653 13.1886035,-1.86137 22.5078474,0.18823 l 6.99671,1.5388 -1.115504,3.1859 c -2.142824,6.11996 -3.11353,12.71135 -3.11353,21.14185 0,7.80358 0.07885,8.32353 1.473814,9.71849 4.309565,4.30957 15.782502,1.73426 14.479476,-3.25018 -0.250997,-0.96012 -0.433448,-5.85617 -0.405452,-10.88011 0.03851,-6.91028 0.344111,-10.20814 1.255085,-13.54415 l 1.204182,-4.40972 7.188221,-0.48029 c 3.953524,-0.26417 9.611183,-0.86892 12.57259,-1.34391 2.961399,-0.47499 5.42516,-0.82583 5.475023,-0.77963 0.04989,0.0462 -0.298577,1.92663 -0.774322,4.17874 -1.82441,8.63657 -0.999974,15.3303 3.108399,25.2377 2.56191,6.17807 3.862351,7.14523 9.655805,7.18113 3.029556,0.0188 4.284845,-0.27479 5.669642,-1.32596 2.36161,-1.79264 2.21038,-3.76687 -1.038153,-13.55271 -2.835024,-8.54018 -2.974012,-9.91867 -1.521884,-15.09401 1.60413,-5.71709 2.669096,-6.4786 8.748345,-6.25553 6.337181,0.23253 13.565906,3.85528 16.480346,8.2593 1.32303,1.99923 1.58539,3.19087 1.67807,7.62185 0.0667,3.18863 -0.36877,7.53353 -1.10838,11.05887 -1.1569,5.51438 -1.16324,5.86751 -0.12567,7.01401 2.70299,2.98677 11.13763,3.27175 13.93844,0.47094 2.48205,-2.48205 4.19873,-17.09445 2.8907,-24.6057 -1.58337,-9.09241 -7.7775,-16.80596 -17.19062,-21.407502 l -5.491711,-2.684584 5.488721,-2.590191 c 12.24002,-5.776212 18.37569,-5.281555 34.86886,2.811118 10.44958,5.127276 16.88219,7.151939 22.72261,7.151939 h 3.70924 l -0.38266,12.12673 c -0.21046,6.66971 -0.69822,14.67808 -1.0839,17.79639 -1.14895,9.28932 -1.06062,10.36159 0.97978,11.89367 1.37695,1.03391 2.68238,1.33549 5.78094,1.33549 5.35291,0 7.31516,-1.39842 8.18948,-5.83631 l 0.62996,-3.19758 2.51984,1.71255 c 1.9839,1.3483 2.51984,2.10804 2.51984,3.572 0,1.60139 -0.43715,2.07804 -3.1498,3.43436 -2.83482,1.41741 -3.90575,1.5749 -10.70932,1.5749 -6.55974,0 -7.89836,-0.18137 -10.12151,-1.37137 -4.77465,-2.55575 -5.13223,-4.71383 -1.18526,-7.15319 1.19479,-0.73842 2.17234,-1.60294 2.17234,-1.92116 0,-2.00296 -5.67397,1.45918 -6.57083,4.00938 -0.81769,2.3251 0.9407,4.68587 5.02867,6.75132 2.83591,1.43285 3.82734,1.5736 10.99156,1.56047 6.97593,-0.0128 8.21816,-0.18348 10.88601,-1.49581 3.43265,-1.68854 4.863,-3.39113 4.863,-5.78857 0,-2.06854 -2.76095,-4.93914 -5.22432,-5.43182 l -1.8204,-0.36408 0.35671,-4.79193 c 0.19619,-2.63556 0.53722,-10.13001 0.75784,-16.65433 l 0.40112,-11.86241 1.6621,0.39178 c 3.21752,0.75842 7.34682,3.27137 8.71747,5.30517 0.76215,1.1309 1.56468,3.38195 1.78339,5.00234 0.64794,4.80047 1.58985,7.23424 3.63621,9.39546 2.30262,2.43186 5.06061,3.53906 12.97114,5.20725 10.52759,2.22009 16.4824,6.07883 19.78295,12.81943 6.26361,12.79198 -1.59139,27.82771 -18.80538,35.99645 -10.67978,5.06799 -23.61796,7.26909 -35.32138,6.00903 -10.81722,-1.16465 -17.17491,-3.52591 -31.10479,-11.55235 -15.01191,-8.64991 -22.28075,-10.84089 -34.33283,-10.34864 -12.415841,0.50711 -17.789555,3.04291 -28.999937,13.68481 -3.95496,3.7544 -9.287209,8.1328 -11.849447,9.72978 -11.553131,7.20075 -26.60596,10.01671 -40.30895,7.54067 z M 185.04465,154.93873 c 8.7693,-1.89837 15.97412,-5.65311 18.72455,-9.75817 2.93195,-4.37596 1.28343,-9.2622 -4.41751,-13.09366 -3.28836,-2.21002 -8.99829,-4.53894 -12.41716,-5.0646 -3.49361,-0.53716 -1.5246,0.71347 3.71306,2.35837 11.7285,3.68336 16.38308,10.89549 10.76959,16.68715 -9.92301,10.23794 -39.82758,11.97956 -56.2763,3.27749 -5.8981,-3.12035 -8.027,-6.90446 -6.30524,-11.20755 1.10925,-2.77228 3.81897,-5.02999 8.74226,-7.28394 4.36808,-1.99977 3.93499,-3.13508 -0.50077,-1.31274 -2.00446,0.82349 -4.67866,2.72697 -6.82815,4.86022 l -3.53327,3.50657 -0.96153,-1.67536 c -1.40038,-2.44002 -12.44564,-7.56378 -12.44564,-5.77337 0,0.32919 1.2048,0.95143 2.67733,1.38275 3.51587,1.02983 7.72923,3.49466 8.9479,5.23456 0.53568,0.76481 0.97398,2.29758 0.97398,3.40616 0,2.88394 -4.00955,6.15998 -9.74982,7.96619 -5.94206,1.86971 -21.28324,2.02276 -26.956337,0.26892 l -3.633232,-1.12322 1.704551,-1.46619 1.704547,-1.46619 2.873631,1.32741 c 2.41599,1.11603 4.0775,1.32775 10.43315,1.32949 6.81462,0.002 7.86667,-0.15312 10.67658,-1.57283 4.08797,-2.06545 5.84637,-4.42622 5.02867,-6.75132 -0.54993,-1.56372 -4.11212,-4.58797 -5.40407,-4.58797 -1.04928,0 -0.51715,1.81122 0.64004,2.1785 0.64726,0.20543 1.67304,0.92182 2.27953,1.59197 4.00454,4.42496 -6.3528,8.87053 -17.47019,7.49853 -2.33718,-0.28843 -5.09296,-0.96063 -6.12394,-1.49377 -1.64531,-0.85082 -1.80161,-1.16107 -1.27831,-2.53746 0.38007,-0.99966 0.37123,-2.15983 -0.0244,-3.20037 -0.52818,-1.38923 -0.43207,-1.68155 0.64556,-1.96336 0.69637,-0.1821 1.26613,-0.75359 1.26613,-1.26997 0,-0.58452 -0.35664,-0.79455 -0.94494,-0.55648 -0.51972,0.21031 -1.29929,0.51488 -1.732391,0.67683 -0.4331,0.16196 -1.588731,-0.36209 -2.568065,-1.16454 l -1.780622,-1.45901 2.883051,-0.8072 c 1.585674,-0.44397 2.883047,-1.05385 2.883047,-1.3553 0,-0.76132 -0.60716,-0.69403 -3.918769,0.43435 -2.69109,0.91694 -3.171007,0.89927 -7.199275,-0.2651 -6.225609,-1.79952 -8.568489,-2.13574 -8.251656,-1.18418 0.143171,0.43 0.803786,0.85896 1.468035,0.95323 0.664242,0.0943 3.028075,0.63501 5.252956,1.20162 l 4.045238,1.03021 -1.766565,1.40861 c -1.631907,1.30124 -1.926703,1.34169 -3.867515,0.53077 -2.486101,-1.03876 -3.40134,-1.10595 -3.40134,-0.24968 0,0.34548 0.888246,0.99059 1.973874,1.43358 1.870913,0.76341 1.974492,0.98532 1.985623,4.25404 l 0.01172,3.44861 -3.088044,1.07486 c -3.876493,1.3493 -12.791308,1.46731 -16.922462,0.22401 -3.238928,-0.97477 -6.009317,-3.13302 -6.009317,-4.6815 0,-0.52698 0.758907,-1.75028 1.686468,-2.71844 2.075132,-2.16598 1.444151,-3.10407 -0.909331,-1.35192 -3.455942,2.57294 -3.187332,6.16195 0.649049,8.67209 5.250001,3.43508 18.760419,3.71233 24.748035,0.50786 0.978442,-0.52365 1.610199,-0.35868 3.06324,0.79994 l 1.83057,1.45965 -3.40728,1.06171 c -2.039282,0.63545 -6.57819,1.19464 -11.305098,1.39279 -6.720988,0.28174 -8.692224,0.13036 -13.229167,-1.0159 -2.932237,-0.74084 -6.578549,-2.12282 -8.102907,-3.07108 l -2.771555,-1.72411 -0.09798,-4.02898 -0.09799,-4.02899 2.835389,-1.79815 c 1.559467,-0.98898 3.18838,-1.79814 3.619814,-1.79814 0.431435,0 0.959631,-0.28349 1.173766,-0.62997 0.825312,-1.33537 -2.120093,-0.53596 -5.480193,1.48739 l -3.516198,2.11734 -2.62727,-1.76449 c -3.135773,-2.10601 -8.260586,-3.90703 -10.252747,-3.60314 -0.973723,0.14854 -0.02064,0.66079 2.977599,1.60037 2.425348,0.76005 5.414095,2.07008 6.641661,2.91118 2.172795,1.48874 2.230556,1.635 2.179831,5.52005 -0.05109,3.91429 -0.09992,4.0242 -2.546917,5.73361 -1.399505,0.97766 -4.820322,2.32757 -7.791701,3.07473 -7.099294,1.78514 -19.521903,1.47198 -26.120677,-0.65847 -5.6742892,-1.83198 -9.4397762,-5.16865 -9.3514929,-8.28653 0.080901,-2.85719 3.1612895,-5.66946 8.2371789,-7.52022 2.114323,-0.77092 3.700629,-1.63401 3.525129,-1.91797 -0.405966,-0.65687 -4.81837,0.88889 -8.2083876,2.87558 -3.2111079,1.88183 -4.6772221,4.0221 -4.6772221,6.82792 0,4.2974 4.6315778,7.77252 13.2707267,9.95719 4.47399,1.13136 6.484395,1.28207 13.475295,1.01005 9.234725,-0.3593 14.852329,-1.76625 18.967931,-4.75058 l 2.451388,-1.77756 2.538796,1.71341 c 1.396347,0.94238 4.378894,2.36411 6.627895,3.15941 3.571764,1.26304 5.324451,1.44969 13.853482,1.47526 8.375677,0.0251 10.394471,-0.16899 14.194695,-1.3647 l 4.430316,-1.39396 4.074149,1.32684 c 6.297107,2.05078 18.889507,2.3408 25.796707,0.59411 5.64266,-1.42691 10.03337,-3.65485 11.78858,-5.98179 l 1.10181,-1.46069 1.64763,2.57982 c 3.02443,4.73559 12.32877,8.88262 23.47343,10.46231 5.09939,0.72281 17.9284,0.22599 23.10578,-0.8948 z m -1.18253,-4.6661 c 12.49419,-3.4829 16.33683,-11.29302 8.2042,-16.67494 -2.7113,-1.79425 -9.51635,-4.32038 -10.31269,-3.82821 -1.14213,0.70588 -0.23692,1.32074 3.91136,2.65678 8.45434,2.7229 11.32319,7.84974 6.67584,11.93017 -10.94698,9.61158 -44.67382,6.29567 -44.67382,-4.39217 0,-2.50493 3.24243,-5.5225 7.62268,-7.09404 5.14752,-1.84683 5.89757,-2.23218 5.52333,-2.8377 -0.48838,-0.79021 -6.24658,0.92493 -9.58757,2.85575 -10.75114,6.2133 -4.40569,15.90306 12.11533,18.5006 5.25215,0.82578 15.5676,0.26468 20.52134,-1.11624 z M 37.047132,146.62077 c 6.151311,-1.82529 8.894058,-4.84386 7.393561,-8.13709 -0.735877,-1.61508 -3.45517,-3.58584 -6.019302,-4.36238 -2.345066,-0.7102 -1.701115,1.18983 0.697174,2.05707 5.096598,1.84295 5.442929,5.39172 0.747991,7.6645 -5.962153,2.88623 -16.135342,2.88364 -21.79864,-0.006 -4.214974,-2.15032 -4.518922,-4.67869 -0.836075,-6.95481 2.003441,-1.2382 2.801405,-2.47559 1.596451,-2.47559 -1.285206,0 -4.852739,3.02027 -5.397614,4.56961 -1.131533,3.2175 2.337226,6.57959 8.210775,7.9583 4.011522,0.94163 11.702348,0.78485 15.405679,-0.31405 z"
         style="fill:url(#linearGradient1256);fill-opacity:1;stroke:none;stroke-width:2.05952382;stroke-linecap:round;stroke-linejoin:round;stroke-miterlimit:4;stroke-dasharray:none;stroke-dashoffset:0;stroke-opacity:1;paint-order:normal" />
      <path
         inkscape:connector-curvature="0"
         id="path1258"
         d="m 91.269392,144.8958 c -1.233037,-1.31251 -1.2812,-1.57124 -0.424791,-2.28199 1.22841,-1.01949 1.236475,-3.13058 0.0186,-4.86933 -0.878014,-1.25355 -0.825706,-1.44816 0.714915,-2.66002 2.079511,-1.63574 2.795029,-1.63574 4.874538,0 1.540623,1.21186 1.592929,1.40647 0.714917,2.66002 -1.153729,1.64717 -1.203981,3.18785 -0.159874,4.90149 0.681453,1.11843 0.587258,1.45647 -0.699749,2.51129 -1.964127,1.60978 -3.348093,1.53796 -5.038558,-0.26146 z"
         style="fill:#d5f6ff;fill-opacity:1;stroke:none;stroke-width:2.05952382;stroke-linecap:round;stroke-linejoin:round;stroke-miterlimit:4;stroke-dasharray:none;stroke-dashoffset:0;stroke-opacity:1;paint-order:normal" />
      <path
         inkscape:connector-curvature="0"
         id="path1260"
         d="m 98.721366,142.35088 c -1.117648,-1.1954 -1.279126,-2.59063 -0.434734,-3.75628 0.76123,-1.05085 0.890656,-1.08102 1.230309,-0.28682 0.410647,0.9602 0.388496,2.69427 -0.04698,3.67816 l -0.350152,0.7911 z"
         style="fill:#d5f6ff;fill-opacity:1;stroke:none;stroke-width:0.59655172;stroke-linecap:round;stroke-linejoin:round;stroke-miterlimit:4;stroke-dasharray:none;stroke-dashoffset:0;stroke-opacity:1;paint-order:normal" />
      <path
         inkscape:connector-curvature="0"
         id="path1262"
         d="m 88.556283,141.82979 c -0.161435,-0.40346 -0.293518,-1.14081 -0.293518,-1.63855 0,-0.87729 0.45239,-2.37212 0.717889,-2.37212 0.180549,0 0.835215,0.73659 1.084022,1.21968 0.372967,0.72417 0.242715,1.75184 -0.338122,2.66773 -0.298868,0.47126 -0.6184,0.85684 -0.710073,0.85684 -0.09167,0 -0.298762,-0.33011 -0.460198,-0.73358 z"
         style="fill:#d5f6ff;fill-opacity:1;stroke:none;stroke-width:0.59655172;stroke-linecap:round;stroke-linejoin:round;stroke-miterlimit:4;stroke-dasharray:none;stroke-dashoffset:0;stroke-opacity:1;paint-order:normal" />
      <path
         inkscape:connector-curvature="0"
         id="path1264"
         d="m 52.151305,141.62379 c -0.37179,-1.06652 -0.134681,-3.6222 0.336061,-3.6222 0.45811,0 0.715015,2.59842 0.358124,3.6222 -0.253349,0.72675 -0.440836,0.72675 -0.694185,0 z"
         style="fill:#e3f4d7;fill-opacity:1;stroke:none;stroke-width:0.59655172;stroke-linecap:round;stroke-linejoin:round;stroke-miterlimit:4;stroke-dasharray:none;stroke-dashoffset:0;stroke-opacity:1;paint-order:normal" />
      <path
         inkscape:connector-curvature="0"
         id="path1276"
         d="m 22.216646,130.79397 c -0.0044,-2.81626 0.304332,-6.65164 0.734116,-9.11965 l 0.206571,-1.18621 0.82396,0.59115 c 0.453178,0.32513 1.305012,1.10515 1.892964,1.73338 2.549099,2.7237 2.074317,4.98875 -1.907196,9.09871 l -1.745843,1.80216 z"
         style="fill:#f4e3d7;fill-opacity:1;stroke:none;stroke-width:0.59655172;stroke-linecap:round;stroke-linejoin:round;stroke-miterlimit:4;stroke-dasharray:none;stroke-dashoffset:0;stroke-opacity:1;paint-order:normal" />
      <path
         inkscape:connector-curvature="0"
         id="path1278"
         d="m 23.668518,118.24908 c 0.0016,-0.60115 1.365364,-5.29278 2.01499,-6.93162 0.897596,-2.2644 1.56895,-3.48288 2.870234,-5.20937 1.10213,-1.46226 1.630119,-1.8739 1.887998,-1.47196 0.544529,0.84872 0.952326,2.39556 1.027205,3.89635 0.204473,4.09822 -1.698275,7.158 -5.656667,9.09639 -1.831642,0.89694 -2.144694,0.98751 -2.14376,0.62021 z"
         style="fill:#f4e3d7;fill-opacity:1;stroke:none;stroke-width:0.59655172;stroke-linecap:round;stroke-linejoin:round;stroke-miterlimit:4;stroke-dasharray:none;stroke-dashoffset:0;stroke-opacity:1;paint-order:normal" />
      <path
         inkscape:connector-curvature="0"
         id="path1280"
         d="m 24.306587,141.65702 c -1.452025,-0.69813 -1.60451,-0.97668 -1.809276,-3.30508 -0.06549,-0.74467 -0.167624,-1.76274 -0.226965,-2.26237 l -0.107892,-0.90843 1.072065,0.89375 c 3.631023,3.0271 4.251074,4.18009 2.89043,5.37475 -0.752916,0.66107 -0.851373,0.6723 -1.818362,0.20738 z"
         style="fill:#f4e3d7;fill-opacity:1;stroke:none;stroke-width:0.59655172;stroke-linecap:round;stroke-linejoin:round;stroke-miterlimit:4;stroke-dasharray:none;stroke-dashoffset:0;stroke-opacity:1;paint-order:normal" />
      <path
         inkscape:connector-curvature="0"
         id="path1282"
         d="m 69.582936,140.36878 c -0.874294,-1.95692 -3.543006,-8.6707 -3.474008,-8.73969 0.04482,-0.0448 0.858398,0.3119 1.80794,0.79273 1.868072,0.94596 3.219196,2.01005 3.677449,2.89621 0.522621,1.01064 0.07678,2.73113 -1.285182,4.95951 l -0.443076,0.72495 z"
         style="fill:#f4e3d7;fill-opacity:1;stroke:none;stroke-width:0.59655172;stroke-linecap:round;stroke-linejoin:round;stroke-miterlimit:4;stroke-dasharray:none;stroke-dashoffset:0;stroke-opacity:1;paint-order:normal" />
      <path
         inkscape:connector-curvature="0"
         id="path1284"
         d="m 64.837975,127.7832 c -0.270428,-0.75285 -0.684696,-3.34024 -0.840375,-5.24872 -0.150714,-1.84762 0.01426,-6.32558 0.241433,-6.55274 0.142195,-0.1422 2.375648,3.06118 2.985116,4.28146 0.9461,1.89429 1.009251,2.97412 0.261284,4.46787 -0.689102,1.37619 -2.499683,3.46352 -2.647458,3.05213 z"
         style="fill:#f4e3d7;fill-opacity:1;stroke:none;stroke-width:0.59655172;stroke-linecap:round;stroke-linejoin:round;stroke-miterlimit:4;stroke-dasharray:none;stroke-dashoffset:0;stroke-opacity:1;paint-order:normal" />
      <path
         inkscape:connector-curvature="0"
         id="path1286"
         d="m 64.906444,111.5749 c 0,-0.56443 1.041408,-4.06141 1.639634,-5.50578 1.103508,-2.66434 2.599581,-4.91515 4.528761,-6.813455 l 1.082943,-1.065607 0.251846,1.24808 c 0.142719,0.707282 0.251844,2.354982 0.251844,3.802672 0,2.29906 -0.0434,2.65062 -0.433851,3.51449 -0.67155,1.48577 -2.189684,2.76541 -4.818668,4.06166 -1.21725,0.60018 -2.27828,1.09124 -2.357845,1.09124 -0.07957,0 -0.144664,-0.14999 -0.144664,-0.3333 z"
         style="fill:#f4e3d7;fill-opacity:1;stroke:none;stroke-width:0.59655172;stroke-linecap:round;stroke-linejoin:round;stroke-miterlimit:4;stroke-dasharray:none;stroke-dashoffset:0;stroke-opacity:1;paint-order:normal" />
      <path
         inkscape:connector-curvature="0"
         id="path1288"
         d="m 82.369431,102.16246 c -0.96338,-0.35192 -2.053035,-1.10223 -3.040986,-2.09393 -1.197441,-1.201993 -3.485949,-4.089899 -3.413427,-4.307463 0.09087,-0.272621 2.700041,-1.321692 4.308811,-1.732447 2.082628,-0.531743 4.773311,-0.787299 6.944109,-0.659542 1.889188,0.111183 4.200694,0.417496 4.361116,0.577921 0.115232,0.115231 -2.229411,3.551174 -3.508999,5.142246 -2.140342,2.661355 -4.003768,3.674825 -5.650624,3.073215 z"
         style="fill:#f4e3d7;fill-opacity:1;stroke:none;stroke-width:0.59655172;stroke-linecap:round;stroke-linejoin:round;stroke-miterlimit:4;stroke-dasharray:none;stroke-dashoffset:0;stroke-opacity:1;paint-order:normal" />
      <path
         inkscape:connector-curvature="0"
         id="path1290"
         d="m 98.804591,104.7453 c -1.082795,-0.89127 -1.819397,-3.54262 -2.103568,-7.571654 -0.07963,-1.129043 -0.134493,-2.052802 -0.121912,-2.052802 0.05798,0 1.424329,0.462804 3.088108,1.045996 1.003591,0.351782 2.727011,1.08994 3.829811,1.640353 1.98788,0.992151 5.38499,3.080057 5.38499,3.309677 0,0.28412 -4.83572,3.04095 -6.30253,3.59306 -1.57651,0.5934 -3.079839,0.60748 -3.774899,0.0354 z"
         style="fill:#f4e3d7;fill-opacity:1;stroke:none;stroke-width:0.59655172;stroke-linecap:round;stroke-linejoin:round;stroke-miterlimit:4;stroke-dasharray:none;stroke-dashoffset:0;stroke-opacity:1;paint-order:normal" />
      <path
         inkscape:connector-curvature="0"
         id="path1292"
         d="m 116.54581,116.08116 c -2.60123,-0.2112 -4.57572,-0.6021 -5.7448,-1.13732 -1.64552,-0.75335 -2.03074,-1.82362 -1.39984,-3.88928 0.35766,-1.17106 2.34109,-4.89474 3.14148,-5.8978 l 0.36401,-0.45618 1.01544,1.09483 c 2.44805,2.63944 4.68651,6.75462 5.43424,9.9903 0.13311,0.57599 0.35599,0.55256 -2.81053,0.29545 z"
         style="fill:#f4e3d7;fill-opacity:1;stroke:none;stroke-width:0.59655172;stroke-linecap:round;stroke-linejoin:round;stroke-miterlimit:4;stroke-dasharray:none;stroke-dashoffset:0;stroke-opacity:1;paint-order:normal" />
      <path
         inkscape:connector-curvature="0"
         id="path1294"
         d="m 117.08474,129.46982 c -1.35018,-0.67811 -2.83217,-1.49441 -3.29331,-1.81401 -1.08403,-0.75129 -1.98987,-1.78891 -1.98987,-2.27934 0,-0.96425 2.13011,-2.27707 6.02155,-3.71119 l 2.09842,-0.77334 0.0578,2.67013 c 0.0646,2.98112 -0.11763,7.14067 -0.31278,7.14067 -0.0698,0 -1.23166,-0.55482 -2.58184,-1.23292 z"
         style="fill:#f4e3d7;fill-opacity:1;stroke:none;stroke-width:0.59655172;stroke-linecap:round;stroke-linejoin:round;stroke-miterlimit:4;stroke-dasharray:none;stroke-dashoffset:0;stroke-opacity:1;paint-order:normal" />
      <path
         inkscape:connector-curvature="0"
         id="path1296"
         d="m 114.81245,140.44538 c -3.34665,-1.84221 -4.75666,-2.95755 -4.62211,-3.65617 0.13263,-0.68869 3.64539,-1.57894 7.86991,-1.99451 1.23624,-0.12161 1.24039,-0.12048 1.14393,0.31074 -0.0532,0.23803 -0.34586,1.58236 -0.65026,2.98739 -0.45795,2.11371 -0.63351,2.62545 -1.01726,2.96515 -0.25508,0.22581 -0.56185,0.40634 -0.6817,0.40117 -0.11985,-0.005 -1.03898,-0.46136 -2.04251,-1.01377 z"
         style="fill:#f4e3d7;fill-opacity:1;stroke:none;stroke-width:0.59655172;stroke-linecap:round;stroke-linejoin:round;stroke-miterlimit:4;stroke-dasharray:none;stroke-dashoffset:0;stroke-opacity:1;paint-order:normal" />
      <path
         inkscape:connector-curvature="0"
         id="path1298"
         d="m 175.10295,138.76788 c -3.20015,-2.49631 -4.47341,-3.82781 -5.014,-5.24333 -0.29774,-0.77962 -0.29734,-0.85814 0.008,-1.53505 0.56769,-1.25892 2.26687,-2.35818 5.94298,-3.84476 1.23626,-0.49992 2.32699,-0.90895 2.42385,-0.90895 0.55273,0 -1.03789,12.54082 -1.61119,12.70297 -0.10033,0.0284 -0.88763,-0.49852 -1.74955,-1.17088 z"
         style="fill:#f4e3d7;fill-opacity:1;stroke:none;stroke-width:0.59655172;stroke-linecap:round;stroke-linejoin:round;stroke-miterlimit:4;stroke-dasharray:none;stroke-dashoffset:0;stroke-opacity:1;paint-order:normal" />
      <path
         inkscape:connector-curvature="0"
         id="path1300"
         d="m 176.45983,122.23703 c -7.47979,-3.8717 -7.41493,-5.75646 0.33378,-9.699 l 2.31317,-1.17694 -0.0967,5.15466 c -0.0532,2.83506 -0.14984,5.54041 -0.21476,6.01187 l -0.11802,0.85722 z"
         style="fill:#f4e3d7;fill-opacity:1;stroke:none;stroke-width:0.59655172;stroke-linecap:round;stroke-linejoin:round;stroke-miterlimit:4;stroke-dasharray:none;stroke-dashoffset:0;stroke-opacity:1;paint-order:normal" />
      <path
         inkscape:connector-curvature="0"
         id="path1302"
         d="m 177.24022,105.70397 c -4.80989,-1.86398 -6.4791,-3.3378 -5.9607,-5.263 0.38739,-1.438625 2.67275,-3.964554 6.26255,-6.92177 l 1.39049,-1.145466 0.10325,0.598051 c 0.5273,3.054154 0.619,13.517825 0.11784,13.446395 -0.0613,-0.009 -0.92233,-0.33013 -1.91343,-0.71421 z"
         style="fill:#f4e3d7;fill-opacity:1;stroke:none;stroke-width:0.59655172;stroke-linecap:round;stroke-linejoin:round;stroke-miterlimit:4;stroke-dasharray:none;stroke-dashoffset:0;stroke-opacity:1;paint-order:normal" />
      <path
         inkscape:connector-curvature="0"
         id="path1304"
         d="m 175.02785,84.891277 c -4.65999,-0.990134 -6.6937,-2.386324 -6.42239,-4.409119 0.21982,-1.638872 1.81957,-4.313965 4.91277,-8.215122 l 1.55475,-1.960848 0.28691,1.595905 c 0.1578,0.877748 0.58525,3.566594 0.94987,5.975215 0.36463,2.408621 0.77962,4.938935 0.92221,5.62292 0.14258,0.683988 0.25924,1.361411 0.25924,1.505389 0,0.337468 -0.43115,0.317455 -2.46336,-0.11434 z"
         style="fill:#f4e3d7;fill-opacity:1;stroke:none;stroke-width:0.59655172;stroke-linecap:round;stroke-linejoin:round;stroke-miterlimit:4;stroke-dasharray:none;stroke-dashoffset:0;stroke-opacity:1;paint-order:normal" />
      <path
         inkscape:connector-curvature="0"
         id="path1306"
         d="m 166.39782,63.830047 c -3.66493,-0.820539 -3.94048,-2.910027 -1.27577,-9.674002 0.39537,-1.003592 0.78318,-1.891197 0.8618,-1.972456 0.23931,-0.247355 2.85192,2.527383 4.01026,4.25912 0.59947,0.89622 1.41216,2.308484 1.80598,3.138366 0.88396,1.862743 1.72514,4.167034 1.57584,4.316796 -0.24266,0.243406 -5.8306,0.189095 -6.97811,-0.06782 z"
         style="fill:#f4e3d7;fill-opacity:1;stroke:none;stroke-width:0.59655172;stroke-linecap:round;stroke-linejoin:round;stroke-miterlimit:4;stroke-dasharray:none;stroke-dashoffset:0;stroke-opacity:1;paint-order:normal" />
      <path
         inkscape:connector-curvature="0"
         id="path1308"
         d="m 150.36958,53.361655 c -0.65629,-0.41393 -1.37774,-1.778026 -1.7995,-3.402449 -0.31617,-1.217758 -0.93236,-6.062937 -0.78926,-6.206041 0.0502,-0.05019 0.9872,0.284387 2.08222,0.743511 1.09503,0.459124 3.18159,1.247095 4.63679,1.751047 2.81328,0.974262 5.65111,2.09684 5.89574,2.332213 0.15363,0.147818 -1.31691,1.291151 -3.75278,2.917761 -2.93532,1.960129 -5.10063,2.603508 -6.27321,1.863958 z"
         style="fill:#f4e3d7;fill-opacity:1;stroke:none;stroke-width:0.59655172;stroke-linecap:round;stroke-linejoin:round;stroke-miterlimit:4;stroke-dasharray:none;stroke-dashoffset:0;stroke-opacity:1;paint-order:normal" />
      <path
         inkscape:connector-curvature="0"
         id="path1310"
         d="m 117.18446,61.530567 c -0.80287,-0.09622 -1.65208,-0.237233 -1.88711,-0.31337 l -0.42735,-0.138432 0.60077,-0.724292 c 0.97045,-1.170001 2.12671,-2.067084 2.95162,-2.290016 1.05722,-0.285713 2.05144,-0.03041 4.60095,1.181457 2.88519,1.37143 3.7565,1.636146 5.01101,1.522391 1.24553,-0.11294 2.13237,-0.544118 4.25894,-2.070671 1.88429,-1.352632 2.51796,-1.534824 3.52507,-1.013529 1.60439,0.830463 1.60996,0.812009 -0.49313,1.632961 -2.12075,0.827846 -4.68698,1.518414 -7.28627,1.960718 -2.07779,0.353563 -8.72231,0.508304 -10.8545,0.252783 z"
         style="fill:#f4e3d7;fill-opacity:1;stroke:none;stroke-width:0.59655172;stroke-linecap:round;stroke-linejoin:round;stroke-miterlimit:4;stroke-dasharray:none;stroke-dashoffset:0;stroke-opacity:1;paint-order:normal" />
      <path
         inkscape:connector-curvature="0"
         id="path1312"
         d="m 139.62843,38.472579 c -4.44388,-1.161332 -5.53135,-1.844622 -7.20267,-4.52564 -0.42244,-0.677652 -1.06669,-1.478245 -1.43168,-1.779095 -0.80044,-0.659793 -0.59249,-0.685759 0.92316,-0.115271 3.16373,1.190824 7.01968,3.716602 9.34484,6.121185 0.86915,0.898836 0.74748,0.921091 -1.63365,0.298821 z"
         style="fill:#f4e3d7;fill-opacity:1;stroke:none;stroke-width:0.59655172;stroke-linecap:round;stroke-linejoin:round;stroke-miterlimit:4;stroke-dasharray:none;stroke-dashoffset:0;stroke-opacity:1;paint-order:normal" />
      <path
         inkscape:connector-curvature="0"
         id="path1314"
         d="m 115.81593,32.601656 c -1.84009,-0.334507 -3.84067,-0.859889 -3.71257,-0.974974 0.48149,-0.432573 5.30687,-1.100666 7.94967,-1.100666 h 1.8463 l -0.80643,0.421145 c -0.44354,0.231629 -1.243,0.698931 -1.7766,1.038448 -0.76976,0.489789 -1.18438,0.625739 -2.00718,0.65814 -0.57036,0.02246 -1.2423,0.0035 -1.49319,-0.04209 z"
         style="fill:#f4e3d7;fill-opacity:1;stroke:none;stroke-width:0.59655172;stroke-linecap:round;stroke-linejoin:round;stroke-miterlimit:4;stroke-dasharray:none;stroke-dashoffset:0;stroke-opacity:1;paint-order:normal" />
      <path
         inkscape:connector-curvature="0"
         id="path1316"
         d="m 127.67656,37.369822 c -0.87064,-0.279645 -1.82472,-1.03715 -1.82472,-1.448766 0,-0.629015 1.61953,-0.625785 2.88688,0.0058 0.98144,0.489075 1.47884,1.072282 1.17427,1.376854 -0.30349,0.303487 -1.39684,0.335829 -2.23643,0.06615 z"
         style="fill:#c8b7b7;fill-opacity:1;stroke:none;stroke-width:0.59655172;stroke-linecap:round;stroke-linejoin:round;stroke-miterlimit:4;stroke-dasharray:none;stroke-dashoffset:0;stroke-opacity:1;paint-order:normal" />
      <path
         inkscape:connector-curvature="0"
         id="path1318"
         d="m 127.89552,37.429556 c -0.0703,-0.06688 -0.29092,-0.148994 -0.49038,-0.182471 -0.19946,-0.03348 -0.64462,-0.33907 -0.98925,-0.679094 -0.59513,-0.587175 -0.60953,-0.63071 -0.28674,-0.866739 0.43178,-0.315723 0.7221,-0.312199 1.83361,0.02226 1.97385,0.593938 2.57659,1.827649 0.89292,1.827649 -0.45784,0 -0.88991,-0.05472 -0.96016,-0.121604 z"
         style="fill:#87deaa;fill-opacity:1;stroke:none;stroke-width:0.59655172;stroke-linecap:round;stroke-linejoin:round;stroke-miterlimit:4;stroke-dasharray:none;stroke-dashoffset:0;stroke-opacity:1;paint-order:normal" />
      <path
         inkscape:connector-curvature="0"
         id="path1266"
         d="m 73.710193,142.361 c -1.092838,-0.1821 -2.944771,-0.79957 -3.218212,-1.07301 -0.123137,-0.12314 -0.04773,-0.40903 0.229002,-0.86826 0.936972,-1.55484 1.377654,-2.71069 1.443715,-3.78667 0.05919,-0.964 0.0029,-1.19496 -0.47117,-1.93269 -0.626248,-0.97458 -2.100998,-2.00078 -4.34939,-3.02653 l -1.528675,-0.69739 -0.393679,-1.21457 -0.393676,-1.21456 1.224086,-1.34003 c 0.673249,-0.73703 1.435733,-1.78675 1.694413,-2.33273 0.407146,-0.85934 0.459039,-1.1686 0.386287,-2.30219 -0.07062,-1.10038 -0.206185,-1.53596 -0.848884,-2.72749 -0.420667,-0.77988 -1.305769,-2.11874 -1.966897,-2.97524 l -1.20205,-1.55726 0.118065,-1.15238 c 0.06494,-0.63381 0.162984,-1.26944 0.217882,-1.4125 0.0549,-0.14306 0.812252,-0.5647 1.683012,-0.93696 5.97254,-2.55338 7.487473,-4.96198 6.709947,-10.66814 -0.170939,-1.254494 -0.353549,-2.527233 -0.405805,-2.82831 -0.08867,-0.510908 -0.0076,-0.605213 1.215295,-1.414153 0.720664,-0.476705 1.373706,-0.866738 1.4512,-0.866738 0.0775,0 0.618665,0.636368 1.2026,1.414153 1.492231,1.987605 3.825446,4.266918 4.912834,4.799328 1.141888,0.55911 2.600496,0.59608 3.649424,0.0925 1.210879,-0.58132 3.512576,-3.081124 5.361461,-5.82293 1.941899,-2.879744 1.477327,-2.669567 4.249848,-1.922677 l 1.400101,0.377177 0.109689,1.397952 c 0.206491,2.631726 0.64584,5.425418 1.033973,6.574748 0.486759,1.44137 1.433412,2.49218 2.410235,2.67543 1.543166,0.2895 4.477116,-0.86043 8.077986,-3.16608 0.81214,-0.52001 1.55432,-0.94548 1.64929,-0.94548 0.14125,0 1.91492,1.47639 2.96307,2.46644 0.20955,0.19794 0.0737,0.52612 -0.84126,2.03244 -2.17363,3.57842 -2.87533,5.34999 -2.74441,6.92872 0.18413,2.22041 2.17711,3.10698 8.01162,3.56393 l 2.85115,0.2233 0.20548,1.47053 c 0.31987,2.28915 0.34058,2.21837 -0.75296,2.57289 -1.55603,0.50445 -4.8661,1.88424 -5.7182,2.3836 -0.43449,0.25463 -1.03974,0.74741 -1.34498,1.09507 -1.44088,1.64107 -0.13691,3.117 4.93614,5.58706 l 2.72662,1.3276 -0.10988,1.36853 c -0.0604,0.75269 -0.20561,1.4588 -0.3226,1.56911 -0.117,0.11032 -1.11595,0.29926 -2.2199,0.41988 -2.81229,0.30726 -5.52623,0.88335 -6.38649,1.35567 -0.78683,0.43201 -1.01792,1.05587 -0.6475,1.74801 0.27439,0.51271 2.1179,1.79114 4.45496,3.08941 l 1.98274,1.10145 -1.07039,0.32663 c -1.64211,0.50109 -5.04414,0.46204 -6.76049,-0.0776 -1.55331,-0.48838 -2.86211,-1.40863 -2.94019,-2.06732 -0.0298,-0.25121 0.28293,-1.97207 0.69491,-3.82414 1.30277,-5.85673 1.45773,-7.06588 1.45695,-11.36864 -7.9e-4,-4.31797 -0.26244,-6.49578 -0.9623,-8.00904 -1.34532,-2.90888 -4.96571,-6.2191 -8.989551,-8.21937 -4.983216,-2.47718 -12.209918,-3.47371 -16.018119,-2.20883 -0.557339,0.18512 -1.201687,0.59411 -1.660069,1.05371 -1.876039,1.88102 -3.704019,7.12525 -4.046321,11.60836 -0.154906,2.02877 0.162978,3.55981 1.591172,7.66363 1.979176,5.68704 2.859061,8.50947 3.473284,11.14137 l 0.602371,2.58113 -0.5687,0.50813 c -1.408764,1.25873 -4.746117,1.90056 -7.498064,1.442 z"
         style="fill:#e3f4d7;fill-opacity:1;stroke:none;stroke-width:0.59655172;stroke-linecap:round;stroke-linejoin:round;stroke-miterlimit:4;stroke-dasharray:none;stroke-dashoffset:0;stroke-opacity:1;paint-order:normal" />
      <path
         inkscape:connector-curvature="0"
         id="path1270"
         d="m 26.861184,142.44028 c -0.841528,-0.1862 -0.858237,-0.23281 -0.287927,-0.80312 1.308055,-1.30805 0.79774,-2.55167 -2.053424,-5.0041 -0.700055,-0.60216 -1.522587,-1.30988 -1.827844,-1.57271 l -0.555017,-0.47787 1.811089,-1.9476 c 3.123631,-3.35907 4.060732,-5.04581 3.863737,-6.95452 -0.174517,-1.6909 -1.173832,-3.13123 -3.236844,-4.66529 -1.810369,-1.34621 -1.757238,-1.57345 0.611976,-2.6175 2.91402,-1.28414 4.619106,-2.72081 5.644433,-4.75589 1.449422,-2.87684 1.532803,-6.08984 0.225012,-8.67064 l -0.486889,-0.96083 0.517975,-0.41995 c 0.962885,-0.78066 4.196342,-2.62422 6.854502,-3.908102 1.45396,-0.702257 2.686362,-1.276832 2.738671,-1.276832 0.05231,0 -0.304758,1.076177 -0.793483,2.391504 -2.686362,7.22995 -4.993034,15.58223 -5.440267,19.69877 -0.500952,4.611 -0.424376,11.32319 0.201117,17.62884 0.156763,1.58032 0.167841,2.3662 0.03637,2.5802 -0.311099,0.50641 -1.979398,1.31008 -3.300732,1.59007 -1.158595,0.2455 -3.701,0.32734 -4.52246,0.14557 z"
         style="fill:#e3f4d7;fill-opacity:1;stroke:none;stroke-width:0.59655172;stroke-linecap:round;stroke-linejoin:round;stroke-miterlimit:4;stroke-dasharray:none;stroke-dashoffset:0;stroke-opacity:1;paint-order:normal" />
      <path
         inkscape:connector-curvature="0"
         id="path1268"
         d="m 168.23043,142.29752 c -1.37291,-0.31144 -2.89689,-1.10748 -3.38119,-1.76614 -0.35049,-0.47666 -0.35023,-0.49561 0.0285,-2.10891 1.32691,-5.6519 1.61603,-9.07457 2.07021,-24.50709 0.2955,-10.04059 0.29049,-17.220606 -0.0137,-19.706893 -0.12894,-1.053772 -0.43703,-2.860239 -0.68465,-4.014367 -0.80182,-3.737277 -1.14955,-5.840629 -1.80151,-10.896814 -1.24861,-9.683361 -2.21234,-13.122561 -4.54782,-16.229428 -0.95482,-1.270196 -1.78892,-1.855748 -4.67285,-3.280415 -3.4595,-1.709002 -7.08005,-2.990646 -10.99866,-3.893421 -2.2306,-0.513893 -2.36716,-0.494998 -3.59415,0.497274 -0.58946,0.476708 -1.51266,1.105001 -2.05155,1.396212 l -0.9798,0.529471 -0.78805,-0.570863 c -1.60438,-1.162203 -2.54135,-1.003257 -5.20037,0.882169 -3.08211,2.185424 -4.15977,2.258761 -7.75332,0.527629 -4.67912,-2.254091 -5.8135,-2.183532 -8.36087,0.520036 l -1.31888,1.399747 -1.6919,-0.38416 c -0.93054,-0.211285 -1.96179,-0.495477 -2.29166,-0.631531 l -0.59975,-0.247372 7.76175,-4.721773 c 8.19649,-4.986242 8.29875,-5.066046 7.44243,-5.807949 -0.17563,-0.152161 -5.09376,-2.730889 -10.92918,-5.730507 l -10.60984,-5.453851 0.26296,-0.635332 c 0.68637,-1.658277 3.44338,-3.960819 6.04036,-5.044659 l 1.32357,-0.552386 1.96091,0.522204 c 1.0785,0.287213 2.65887,0.570753 3.51192,0.63009 1.76476,0.122754 2.28183,-0.03018 4.1056,-1.214319 1.74204,-1.131073 3.24045,-1.328303 6.22574,-0.819473 1.04225,0.177647 2.09223,0.506589 2.94239,0.921802 1.09633,0.535442 1.43879,0.816572 2.00718,1.647731 2.10486,3.077907 2.13232,3.106606 3.73088,3.898446 1.0108,0.500694 2.44204,0.979758 4.29356,1.43714 2.96237,0.731798 3.35334,0.942741 3.99623,2.156168 0.27,0.509611 0.68007,0.817045 1.93069,1.447465 1.7998,0.907255 1.62631,0.563792 1.97369,3.907565 0.39629,3.814636 1.22869,6.280829 2.42893,7.1963 1.58173,1.206438 4.46081,0.152215 9.26814,-3.393683 0.99544,-0.73423 1.8389,-1.229729 2.01651,-1.184607 0.45156,0.11472 3.18996,1.771252 3.80875,2.304019 l 0.53529,0.460873 -0.9228,2.280891 c -2.52373,6.23789 -2.38517,8.73103 0.54953,9.887743 0.88745,0.34979 1.48605,0.41316 4.74471,0.502322 l 3.72914,0.102032 0.24163,0.912357 c 0.1329,0.501795 0.41207,1.6686 0.62037,2.592898 l 0.37874,1.680543 -1.86828,2.366685 c -3.38603,4.289332 -4.69755,6.553957 -4.86498,8.400415 -0.23248,2.563791 1.81014,3.862747 7.90924,5.0297 0.77853,0.148955 1.47546,0.33342 1.54874,0.409922 0.11128,0.116173 0.76273,3.129798 1.14052,5.27608 0.0941,0.534622 0.008,0.651967 -1.21354,1.663141 -0.72314,0.598363 -1.97169,1.683208 -2.77456,2.410767 -6.09668,5.524766 -5.47272,7.989346 2.77983,10.980156 l 1.685,0.61067 0.003,0.93121 c 0.002,0.51216 -0.0478,1.41625 -0.1098,2.00907 l -0.11266,1.07787 -1.8075,0.88488 c -3.79632,1.85853 -6.20695,3.60655 -6.73641,4.88478 -0.71878,1.73529 1.00224,3.48093 6.08818,6.17528 l 2.13363,1.13032 v 1.321 1.321 l -1.59662,0.59788 c -5.82014,2.17947 -8.09776,4.03274 -7.62143,6.20147 0.29033,1.32186 2.21946,3.34795 5.73791,6.02632 l 1.5304,1.165 -0.56799,0.5075 c -1.29966,1.16125 -5.41831,1.76397 -8.02035,1.1737 z M 130.63622,38.807709 c 0.27561,-0.142524 0.63294,-0.514056 0.79406,-0.825627 0.86962,-1.681669 -1.23063,-3.830405 -4.02598,-4.11891 -2.43979,-0.251808 -3.9501,1.509488 -2.78144,3.243663 1.19156,1.76815 4.2244,2.625985 6.01336,1.700874 z"
         style="fill:#e3f4d7;fill-opacity:1;stroke:none;stroke-width:0.59655172;stroke-linecap:round;stroke-linejoin:round;stroke-miterlimit:4;stroke-dasharray:none;stroke-dashoffset:0;stroke-opacity:1;paint-order:normal" />
    </g>
  </g>
</svg>
