<?xml version="1.0" encoding="UTF-8" standalone="no"?>
<!-- Created with Inkscape (http://www.inkscape.org/) -->

<svg
   xmlns:dc="http://purl.org/dc/elements/1.1/"
   xmlns:cc="http://creativecommons.org/ns#"
   xmlns:rdf="http://www.w3.org/1999/02/22-rdf-syntax-ns#"
   xmlns:svg="http://www.w3.org/2000/svg"
   xmlns="http://www.w3.org/2000/svg"
   xmlns:sodipodi="http://sodipodi.sourceforge.net/DTD/sodipodi-0.dtd"
   xmlns:inkscape="http://www.inkscape.org/namespaces/inkscape"
   width="258.54266mm"
   height="185.34717mm"
   viewBox="0 0 258.54266 185.34717"
   version="1.1"
   id="svg8"
   inkscape:version="0.92.3 (2405546, 2018-03-11)"
   sodipodi:docname="wildcards.svg">
  <defs
     id="defs2" />
  <sodipodi:namedview
     id="base"
     pagecolor="#ffffff"
     bordercolor="#666666"
     borderopacity="1.0"
     inkscape:pageopacity="0.0"
     inkscape:pageshadow="2"
     inkscape:zoom="0.57875767"
     inkscape:cx="439.6121"
     inkscape:cy="315.75269"
     inkscape:document-units="mm"
     inkscape:current-layer="g1048"
     showgrid="false"
     inkscape:snap-intersection-paths="true"
     inkscape:object-paths="true"
     fit-margin-top="0"
     fit-margin-left="0"
     fit-margin-right="0"
     fit-margin-bottom="0"
     inkscape:window-width="1920"
     inkscape:window-height="1172"
     inkscape:window-x="1920"
     inkscape:window-y="0"
     inkscape:window-maximized="1" />
  <metadata
     id="metadata5">
    <rdf:RDF>
      <cc:Work
         rdf:about="">
        <dc:format>image/svg+xml</dc:format>
        <dc:type
           rdf:resource="http://purl.org/dc/dcmitype/StillImage" />
        <dc:title></dc:title>
      </cc:Work>
    </rdf:RDF>
  </metadata>
  <g
     inkscape:label="Layer 1"
     inkscape:groupmode="layer"
     id="layer1"
     transform="translate(28.202079,-47.029066)">
    <g
       id="g882"
       transform="translate(-180.57716,-16.000508)">
      <g
         id="g1048">
        <path
           style="opacity:1;fill:#dad5c7;fill-opacity:1;stroke:#000000;stroke-width:1.5;stroke-linecap:round;stroke-linejoin:round;stroke-miterlimit:4;stroke-dasharray:none;stroke-dashoffset:0;stroke-opacity:1;paint-order:normal"
           d="m 275.4392,79.095946 a 85.488424,85.488424 0 0 0 -65.60375,83.042474 85.488424,85.488424 0 0 0 65.59961,83.04299 85.488424,85.488424 0 0 0 65.60426,-83.04299 85.488424,85.488424 0 0 0 -65.60012,-83.042474 z"
           id="path850"
           inkscape:connector-curvature="0" />
        <path
           style="opacity:1;fill:#ffccaa;fill-opacity:1;stroke:#000000;stroke-width:1.5;stroke-linecap:round;stroke-linejoin:round;stroke-miterlimit:4;stroke-dasharray:none;stroke-dashoffset:0;stroke-opacity:1;paint-order:normal"
           d="m 295.2452,76.541049 a 85.488424,85.488424 0 0 0 -19.88457,2.445846 85.488424,85.488424 0 0 1 65.60013,83.042475 85.488424,85.488424 0 0 1 -65.60427,83.04299 85.488424,85.488424 0 0 0 19.88871,2.44533 85.488424,85.488424 0 0 0 85.48832,-85.48832 85.488424,85.488424 0 0 0 -85.48832,-85.488321 z"
           id="path856"
           inkscape:connector-curvature="0" />
        <path
           style="opacity:1;fill:#afdde9;fill-opacity:1;stroke:#000000;stroke-width:1.5;stroke-linecap:round;stroke-linejoin:round;stroke-miterlimit:4;stroke-dasharray:none;stroke-dashoffset:0;stroke-opacity:1;paint-order:normal"
           d="m 255.55101,76.6501 a 85.488424,85.488424 0 0 0 -85.48832,85.48832 85.488424,85.488424 0 0 0 85.48832,85.48832 85.488424,85.488424 0 0 0 19.88405,-2.44533 85.488424,85.488424 0 0 1 -2.88302,-0.7431 85.488424,85.488424 0 0 1 -8.11269,-2.68511 85.488424,85.488424 0 0 1 -7.80365,-3.48144 85.488424,85.488424 0 0 1 -7.41764,-4.24315 85.488424,85.488424 0 0 1 -6.95668,-4.96249 85.488424,85.488424 0 0 1 -6.42648,-5.63222 85.488424,85.488424 0 0 1 -5.8322,-6.24561 85.488424,85.488424 0 0 1 -5.17902,-6.797 85.488424,85.488424 0 0 1 -4.47517,-7.27966 85.488424,85.488424 0 0 1 -3.72588,-7.69049 85.488424,85.488424 0 0 1 -2.93935,-8.02379 85.488424,85.488424 0 0 1 -2.1239,-8.27702 85.488424,85.488424 0 0 1 -1.28675,-8.44806 85.488424,85.488424 0 0 1 -0.43718,-8.53385 85.488424,85.488424 0 0 1 0.0553,-2.97966 85.488424,85.488424 0 0 1 0.73432,-8.51369 85.488424,85.488424 0 0 1 1.58078,-8.39794 85.488424,85.488424 0 0 1 2.41122,-8.19795 85.488424,85.488424 0 0 1 3.21738,-7.91631 85.488424,85.488424 0 0 1 3.992,-7.55561 85.488424,85.488424 0 0 1 4.72633,-7.11947 85.488424,85.488424 0 0 1 5.4131,-6.61199 85.488424,85.488424 0 0 1 6.04615,-6.038396 85.488424,85.488424 0 0 1 6.61923,-5.404837 85.488424,85.488424 0 0 1 7.12566,-4.717026 85.488424,85.488424 0 0 1 7.56078,-3.98167 85.488424,85.488424 0 0 1 7.92045,-3.207554 85.488424,85.488424 0 0 1 8.20105,-2.400371 85.488424,85.488424 0 0 0 -19.88819,-2.445846 z"
           id="path861"
           inkscape:connector-curvature="0" />
        <text
           id="text901"
           y="71.070427"
           x="151.79114"
           style="font-style:normal;font-weight:normal;font-size:10.58333302px;line-height:1.25;font-family:sans-serif;letter-spacing:0px;word-spacing:0px;fill:#37abc8;fill-opacity:1;stroke:none;stroke-width:0.26458332"
           xml:space="preserve"><tspan
             style="fill:#37abc8;stroke-width:0.26458332"
             y="71.070427"
             x="151.79114"
             id="tspan899"
             sodipodi:role="line">out_path_pattern</tspan></text>
        <text
           id="text901-7"
           y="74.24543"
           x="328.58685"
           style="font-style:normal;font-weight:normal;font-size:10.58333302px;line-height:1.25;font-family:sans-serif;letter-spacing:0px;word-spacing:0px;fill:#ff7f2a;fill-opacity:1;stroke:none;stroke-width:0.26458332"
           xml:space="preserve"><tspan
             style="fill:#ff7f2a;stroke-width:0.26458332"
             y="74.24543"
             x="328.58685"
             id="tspan899-5"
             sodipodi:role="line">in_path_pattern</tspan></text>
        <text
           transform="rotate(-31.645235)"
           id="text923"
           y="202.09018"
           x="109.60773"
           style="font-style:normal;font-weight:normal;font-size:10.58333302px;line-height:1.25;font-family:sans-serif;letter-spacing:0px;word-spacing:0px;fill:#333333;fill-opacity:1;stroke:none;stroke-width:0.26458332;"
           xml:space="preserve"><tspan
             style="stroke-width:0.26458332;fill:#333333;"
             y="202.09018"
             x="109.60773"
             id="tspan921"
             sodipodi:role="line">step</tspan></text>
        <text
           transform="rotate(-31.645235)"
           id="text923-3"
           y="217.9545"
           x="71.588821"
           style="font-style:normal;font-weight:normal;font-size:10.58333302px;line-height:1.25;font-family:sans-serif;letter-spacing:0px;word-spacing:0px;fill:#333333;fill-opacity:1;stroke:none;stroke-width:0.26458332;"
           xml:space="preserve"><tspan
             style="stroke-width:0.26458332;fill:#333333;"
             y="217.9545"
             x="71.588821"
             id="tspan921-5"
             sodipodi:role="line">extension</tspan></text>
        <text
           transform="rotate(-31.645235)"
           id="text923-6"
           y="229.54147"
           x="152.71492"
           style="font-style:normal;font-weight:normal;font-size:10.58333302px;line-height:1.25;font-family:sans-serif;letter-spacing:0px;word-spacing:0px;fill:#333333;fill-opacity:1;stroke:none;stroke-width:0.26458332;"
           xml:space="preserve"><tspan
             style="stroke-width:0.26458332;fill:#333333;"
             y="229.54147"
             x="152.71492"
             id="tspan921-2"
             sodipodi:role="line">sample</tspan></text>
        <text
           transform="rotate(-31.645235)"
           id="text923-6-9"
           y="250.16525"
           x="108.67114"
           style="font-style:normal;font-weight:normal;font-size:10.58333302px;line-height:1.25;font-family:sans-serif;letter-spacing:0px;word-spacing:0px;fill:#333333;fill-opacity:1;stroke:none;stroke-width:0.26458332;"
           xml:space="preserve"><tspan
             style="stroke-width:0.26458332;fill:#333333;"
             y="250.16525"
             x="108.67114"
             id="tspan921-2-1"
             sodipodi:role="line">contrast</tspan></text>
        <text
           transform="rotate(-31.645235)"
           id="text923-6-2"
           y="290.02054"
           x="97.533684"
           style="font-style:normal;font-weight:normal;font-size:10.58333302px;line-height:1.25;font-family:sans-serif;letter-spacing:0px;word-spacing:0px;fill:#333333;fill-opacity:1;stroke:none;stroke-width:0.26458332;"
           xml:space="preserve"><tspan
             style="stroke-width:0.26458332;fill:#333333;"
             y="290.02054"
             x="97.533684"
             id="tspan921-2-7"
             sodipodi:role="line">library</tspan></text>
        <text
           transform="rotate(-31.645235)"
           id="text923-6-0"
           y="268.57498"
           x="140.28558"
           style="font-style:normal;font-weight:normal;font-size:10.58333302px;line-height:1.25;font-family:sans-serif;letter-spacing:0px;word-spacing:0px;fill:#333333;fill-opacity:1;stroke:none;stroke-width:0.26458332;"
           xml:space="preserve"><tspan
             style="stroke-width:0.26458332;fill:#333333;"
             y="268.57498"
             x="140.28558"
             id="tspan921-2-9"
             sodipodi:role="line">lane</tspan></text>
        <text
           transform="rotate(-31.645235)"
           id="text923-6-3"
           y="288.41461"
           x="160.2787"
           style="font-style:normal;font-weight:normal;font-size:10.58333302px;line-height:1.25;font-family:sans-serif;letter-spacing:0px;word-spacing:0px;fill:#333333;fill-opacity:1;stroke:none;stroke-width:0.26458332;"
           xml:space="preserve"><tspan
             style="stroke-width:0.26458332;fill:#333333;"
             y="288.41461"
             x="160.2787"
             id="tspan921-2-6"
             sodipodi:role="line">flowcell</tspan></text>
        <text
           transform="rotate(-31.645235)"
           id="text923-6-06"
           y="256.01724"
           x="172.18994"
           style="font-style:normal;font-weight:normal;font-size:10.58333302px;line-height:1.25;font-family:sans-serif;letter-spacing:0px;word-spacing:0px;fill:#333333;fill-opacity:1;stroke:none;stroke-width:0.26458332;"
           xml:space="preserve"><tspan
             style="stroke-width:0.26458332;fill:#333333;"
             y="256.01724"
             x="172.18994"
             id="tspan921-2-2"
             sodipodi:role="line">mate</tspan></text>
        <text
           transform="rotate(-31.645235)"
           id="text923-6-6"
           y="334.836"
           x="114.48547"
           style="font-style:normal;font-weight:normal;font-size:10.58333302px;line-height:1.25;font-family:sans-serif;letter-spacing:0px;word-spacing:0px;fill:#333333;fill-opacity:1;stroke:none;stroke-width:0.26458332;"
           xml:space="preserve"><tspan
             style="stroke-width:0.26458332;fill:#333333;"
             y="334.836"
             x="114.48547"
             id="tspan921-2-18"
             sodipodi:role="line">mapping</tspan></text>
        <text
           transform="rotate(-31.645235)"
           id="text923-6-7"
           y="310.13635"
           x="127.55967"
           style="font-style:normal;font-weight:normal;font-size:10.58333302px;line-height:1.25;font-family:sans-serif;letter-spacing:0px;word-spacing:0px;fill:#333333;fill-opacity:1;stroke:none;stroke-width:0.26458332;"
           xml:space="preserve"><tspan
             style="stroke-width:0.26458332;fill:#333333;"
             y="310.13635"
             x="127.55967"
             id="tspan921-2-92"
             sodipodi:role="line">batch</tspan></text>
      </g>
    </g>
  </g>
</svg>
